<svg xmlns="http://www.w3.org/2000/svg" xmlns:xlink="http://www.w3.org/1999/xlink" xmlns:lucid="lucid" width="483" height="256.83"><g transform="translate(-1220 -1080)" lucid:page-tab-id="0_0"><path d="M1280 1108c0-4.42 3.58-8 8-8h224c4.42 0 8 3.58 8 8v44c0 4.42-3.58 8-8 8h-224c-4.42 0-8-3.58-8-8z" fill="#fff" fill-opacity="0"/><use xlink:href="#a" transform="matrix(1,0,0,1,1285,1105) translate(230 17.525)"/><use xlink:href="#b" transform="matrix(1,0,0,1,1285,1105) translate(131.29999999999998 39.125)"/><path d="M1399.5 1220.25h-159.25v-.5h159.25z" fill="#333"/><path d="M1240.26 1220.25h-.26v-.5h.26z" fill="#333"/><path d="M1409.5 1210v20" stroke="#333" stroke-width=".5" fill="#fff"/><path d="M1409.75 1230h-.5v-20h.5z" fill="#333"/><path d="M1419.5 1220h-20" stroke="#333" stroke-width=".5" fill="#fff"/><path d="M1419.5 1220.25h-20v-.5h20z" fill="#333"/><path d="M1399.5 1210v20" stroke="#333" stroke-width=".5" fill="#fff"/><path d="M1399.75 1230h-.5v-20h.5z" fill="#333"/><use xlink:href="#c" transform="matrix(1,0,0,1,1366.8333333333333,1209.2) translate(0.005 14.4)"/><use xlink:href="#c" transform="matrix(1,0,0,1,1261.5,1209.2) translate(0.005 14.4)"/><path d="M1240 1186.67c0-3.7 2.98-6.67 6.67-6.67h146.66c3.7 0 6.67 2.98 6.67 6.67 0 3.68-2.98 6.66-6.67 6.66h-146.66c-3.7 0-6.67-2.98-6.67-6.66z" fill="#fff" fill-opacity="0"/><use xlink:href="#d" transform="matrix(1,0,0,1,1245,1185) translate(13.049999999999997 14.4)"/><use xlink:href="#e" transform="matrix(1,0,0,1,1245,1185) translate(102.95 14.4)"/><path d="M1639.75 1220.25h-139.5v-.5h139.5z" fill="#333"/><path d="M1500.26 1220.25h-.26v-.5h.26z" fill="#333"/><path d="M1669.5 1210v20" stroke="#333" stroke-width=".5" fill="#fff"/><path d="M1669.75 1230h-.5v-20h.5z" fill="#333"/><path d="M1679.5 1220h-20" stroke="#333" stroke-width=".5" fill="#fff"/><path d="M1679.5 1220.25h-20v-.5h20z" fill="#333"/><path d="M1659.5 1220l-.5 3.16-1.43 2.75-2.16 2.17-2.74 1.42-3.16.5-3.16-.5-2.75-1.43-2.17-2.16-1.42-2.74-.5-3.16.5-3.16 1.43-2.75 2.16-2.17 2.74-1.42 3.16-.5 3.16.5 2.75 1.43 2.17 2.16 1.42 2.74.5 3.16z" fill="#fff"/><path d="M1652.74 1210.27l2.82 1.46 2.2 2.2 1.47 2.83.52 3.2-.25.04.25.04-.52 3.2-1.46 2.82-2.2 2.2-2.83 1.47-3.24.52-3.24-.52-2.82-1.46-2.2-2.2-1.47-2.83-.52-3.24.52-3.24 1.46-2.82 2.2-2.2 2.83-1.47 3.24-.52zm-6.32.48l-2.68 1.38-2.1 2.1-1.4 2.7-.5 3.07.5 3.08 1.4 2.68 2.1 2.1 2.68 1.4 3.08.5 3.08-.5 2.68-1.4 2.1-2.1 1.4-2.68.5-3.08-.5-3.08-1.4-2.68-2.1-2.1-2.68-1.4-3.08-.5z" fill="#333"/><use xlink:href="#c" transform="matrix(1,0,0,1,1626.8333333333333,1209.2) translate(0.005 14.4)"/><use xlink:href="#c" transform="matrix(1,0,0,1,1521.5,1209.2) translate(0.005 14.4)"/><path d="M1500 1186.67c0-3.7 2.98-6.67 6.67-6.67h146.66c3.7 0 6.67 2.98 6.67 6.67 0 3.68-2.98 6.66-6.67 6.66h-146.66c-3.7 0-6.67-2.98-6.67-6.66z" fill="#fff" fill-opacity="0"/><use xlink:href="#f" transform="matrix(1,0,0,1,1505,1185) translate(22.049999999999997 14.4)"/><use xlink:href="#e" transform="matrix(1,0,0,1,1505,1185) translate(93.95 14.4)"/><path d="M1639.75 1313.58h-139.5v-.5h139.5z" fill="#333"/><path d="M1500.26 1313.58h-.26v-.5h.26z" fill="#333"/><path d="M1679.4 1323.33l-20-10 20-10z" fill="#fff" fill-opacity="0"/><path d="M1679.5 1303.56l-19.55 9.77 19.55 9.78-.22.46-20.45-10.23 20.45-10.22z" fill="#333"/><path d="M1679.4 1313.33h-20" stroke="#333" stroke-width=".5" fill="#fff"/><path d="M1679.4 1313.58h-20v-.5h20z" fill="#333"/><path d="M1659.4 1313.33l-.52 3.16-1.42 2.74-2.17 2.16-2.75 1.42-3.16.5-3.17-.5-2.75-1.42-2.16-2.16-1.42-2.75-.5-3.17.5-3.16 1.42-2.74 2.16-2.17 2.75-1.42 3.16-.5 3.15.5 2.74 1.42 2.16 2.17 1.42 2.74.5 3.16z" fill="#fff"/><path d="M1652.63 1303.6l2.8 1.46 2.23 2.22 1.46 2.8.52 3.2-.25.05.24.04-.52 3.2-1.46 2.82-2.22 2.2-2.8 1.46-3.25.53-3.25-.54-2.82-1.45-2.22-2.2-1.44-2.83-.53-3.24.53-3.24 1.45-2.82 2.23-2.22 2.82-1.46 3.24-.52zm-6.32.48l-2.67 1.4-2.1 2.1-1.4 2.67-.5 3.08.5 3.08 1.4 2.7 2.1 2.1 2.68 1.38 3.1.5 3.07-.5 2.67-1.38 2.1-2.1 1.4-2.7.5-3.07-.5-3.08-1.4-2.67-2.1-2.1-2.67-1.4-3.08-.5z" fill="#333"/><use xlink:href="#c" transform="matrix(1,0,0,1,1626.8333333333333,1302.5333333333333) translate(0.01 14.4)"/><use xlink:href="#c" transform="matrix(1,0,0,1,1521.5,1302.5333333333333) translate(0.01 14.4)"/><path d="M1500 1280c0-3.68 2.98-6.67 6.67-6.67h146.66c3.7 0 6.67 3 6.67 6.67 0 3.68-2.98 6.67-6.67 6.67h-146.66c-3.7 0-6.67-3-6.67-6.67z" fill="#fff" fill-opacity="0"/><use xlink:href="#f" transform="matrix(1,0,0,1,1505,1278.3333333333333) translate(17.074999999999996 14.4)"/><use xlink:href="#g" transform="matrix(1,0,0,1,1505,1278.3333333333333) translate(88.975 14.4)"/><path d="M1399.5 1313.58h-159.25v-.5h159.25z" fill="#333"/><path d="M1240.26 1313.58h-.26v-.5h.26z" fill="#333"/><path d="M1419.4 1323.33l-20-10 20-10z" fill="#fff" fill-opacity="0"/><path d="M1419.5 1303.56l-19.55 9.77 19.55 9.78-.22.46-20.45-10.23 20.45-10.22z" fill="#333"/><path d="M1419.4 1313.33h-20" stroke="#333" stroke-width=".5" fill="#fff"/><path d="M1419.4 1313.58h-20v-.5h20z" fill="#333"/><path d="M1399.4 1303.33v20" stroke="#333" stroke-width=".5" fill="#fff"/><path d="M1399.64 1323.33h-.5v-20h.5z" fill="#333"/><use xlink:href="#c" transform="matrix(1,0,0,1,1366.8333333333333,1302.5333333333333) translate(0.005 14.4)"/><g><use xlink:href="#c" transform="matrix(1,0,0,1,1261.5,1302.5333333333333) translate(0.005 14.4)"/></g><path d="M1240 1280c0-3.68 2.98-6.67 6.67-6.67h146.66c3.7 0 6.67 3 6.67 6.67 0 3.68-2.98 6.67-6.67 6.67h-146.66c-3.7 0-6.67-3-6.67-6.67z" fill="#fff" fill-opacity="0"/><g><use xlink:href="#d" transform="matrix(1,0,0,1,1245,1278.3333333333333) translate(8.074999999999989 14.4)"/><use xlink:href="#g" transform="matrix(1,0,0,1,1245,1278.3333333333333) translate(97.975 14.4)"/></g><defs><path fill="#333" d="M212-179c-10-28-35-45-73-45-59 0-87 40-87 99 0 60 29 101 89 101 43 0 62-24 78-52l27 14C228-24 195 4 139 4 59 4 22-46 18-125c-6-104 99-153 187-111 19 9 31 26 39 46" id="h"/><path fill="#333" d="M141-36C126-15 110 5 73 4 37 3 15-17 15-53c-1-64 63-63 125-63 3-35-9-54-41-54-24 1-41 7-42 31l-33-3c5-37 33-52 76-52 45 0 72 20 72 64v82c-1 20 7 32 28 27v20c-31 9-61-2-59-35zM48-53c0 20 12 33 32 33 41-3 63-29 60-74-43 2-92-5-92 41" id="i"/><path fill="#333" d="M114-163C36-179 61-72 57 0H25l-1-190h30c1 12-1 29 2 39 6-27 23-49 58-41v29" id="j"/><path fill="#333" d="M85-194c31 0 48 13 60 33l-1-100h32l1 261h-30c-2-10 0-23-3-31C134-8 116 4 85 4 32 4 16-35 15-94c0-66 23-100 70-100zm9 24c-40 0-46 34-46 75 0 40 6 74 45 74 42 0 51-32 51-76 0-42-9-74-50-73" id="k"/><path fill="#333" d="M24-231v-30h32v30H24zM24 0v-190h32V0H24" id="l"/><path fill="#333" d="M117-194c89-4 53 116 60 194h-32v-121c0-31-8-49-39-48C34-167 62-67 57 0H25l-1-190h30c1 10-1 24 2 32 11-22 29-35 61-36" id="m"/><path fill="#333" d="M24 0v-261h32V0H24" id="n"/><path fill="#333" d="M59-47c-2 24 18 29 38 22v24C64 9 27 4 27-40v-127H5v-23h24l9-43h21v43h35v23H59v120" id="o"/><path fill="#333" d="M100-194c63 0 86 42 84 106H49c0 40 14 67 53 68 26 1 43-12 49-29l28 8c-11 28-37 45-77 45C44 4 14-33 15-96c1-61 26-98 85-98zm52 81c6-60-76-77-97-28-3 7-6 17-6 28h103" id="p"/><path fill="#333" d="M135-143c-3-34-86-38-87 0 15 53 115 12 119 90S17 21 10-45l28-5c4 36 97 45 98 0-10-56-113-15-118-90-4-57 82-63 122-42 12 7 21 19 24 35" id="q"/><g id="b"><use transform="matrix(0.05,0,0,0.05,0,0)" xlink:href="#h"/><use transform="matrix(0.05,0,0,0.05,12.950000000000001,0)" xlink:href="#i"/><use transform="matrix(0.05,0,0,0.05,22.950000000000003,0)" xlink:href="#j"/><use transform="matrix(0.05,0,0,0.05,28.900000000000002,0)" xlink:href="#k"/><use transform="matrix(0.05,0,0,0.05,38.900000000000006,0)" xlink:href="#l"/><use transform="matrix(0.05,0,0,0.05,42.85000000000001,0)" xlink:href="#m"/><use transform="matrix(0.05,0,0,0.05,52.85,0)" xlink:href="#i"/><use transform="matrix(0.05,0,0,0.05,62.85,0)" xlink:href="#n"/><use transform="matrix(0.05,0,0,0.05,66.80000000000001,0)" xlink:href="#l"/><use transform="matrix(0.05,0,0,0.05,70.75000000000001,0)" xlink:href="#o"/><use transform="matrix(0.05,0,0,0.05,75.75000000000001,0)" xlink:href="#l"/><use transform="matrix(0.05,0,0,0.05,79.70000000000002,0)" xlink:href="#p"/><use transform="matrix(0.05,0,0,0.05,89.70000000000002,0)" xlink:href="#q"/></g><path fill="#333" d="M240 0l2-218c-23 76-54 145-80 218h-23L58-218 59 0H30v-248h44l77 211c21-75 51-140 76-211h43V0h-30" id="r"/><path fill="#333" d="M100-194c62-1 85 37 85 99 1 63-27 99-86 99S16-35 15-95c0-66 28-99 85-99zM99-20c44 1 53-31 53-75 0-43-8-75-51-75s-53 32-53 75 10 74 51 75" id="s"/><path fill="#333" d="M179-190L93 31C79 59 56 82 12 73V49c39 6 53-20 64-50L1-190h34L92-34l54-156h33" id="t"/><g id="d"><use transform="matrix(0.05,0,0,0.05,0,0)" xlink:href="#r"/><use transform="matrix(0.05,0,0,0.05,14.950000000000001,0)" xlink:href="#i"/><use transform="matrix(0.05,0,0,0.05,24.950000000000003,0)" xlink:href="#m"/><use transform="matrix(0.05,0,0,0.05,34.95,0)" xlink:href="#k"/><use transform="matrix(0.05,0,0,0.05,44.95,0)" xlink:href="#i"/><use transform="matrix(0.05,0,0,0.05,54.95,0)" xlink:href="#o"/><use transform="matrix(0.05,0,0,0.05,59.95,0)" xlink:href="#s"/><use transform="matrix(0.05,0,0,0.05,69.95,0)" xlink:href="#j"/><use transform="matrix(0.05,0,0,0.05,75.9,0)" xlink:href="#t"/></g><path fill="#333" d="M140-251c81 0 123 46 123 126C263-46 219 4 140 4 59 4 17-45 17-125s42-126 123-126zm0 227c63 0 89-41 89-101s-29-99-89-99c-61 0-89 39-89 99S79-25 140-24" id="u"/><g id="e"><use transform="matrix(0.05,0,0,0.05,0,0)" xlink:href="#u"/><use transform="matrix(0.05,0,0,0.05,14,0)" xlink:href="#m"/><use transform="matrix(0.05,0,0,0.05,24,0)" xlink:href="#p"/></g><path fill="#333" d="M115-194c55 1 70 41 70 98S169 2 115 4C84 4 66-9 55-30l1 105H24l-1-265h31l2 30c10-21 28-34 59-34zm-8 174c40 0 45-34 45-75s-6-73-45-74c-42 0-51 32-51 76 0 43 10 73 51 73" id="v"/><g id="f"><use transform="matrix(0.05,0,0,0.05,0,0)" xlink:href="#u"/><use transform="matrix(0.05,0,0,0.05,14,0)" xlink:href="#v"/><use transform="matrix(0.05,0,0,0.05,24,0)" xlink:href="#o"/><use transform="matrix(0.05,0,0,0.05,29,0)" xlink:href="#l"/><use transform="matrix(0.05,0,0,0.05,32.95,0)" xlink:href="#s"/><use transform="matrix(0.05,0,0,0.05,42.95,0)" xlink:href="#m"/><use transform="matrix(0.05,0,0,0.05,52.95,0)" xlink:href="#i"/><use transform="matrix(0.05,0,0,0.05,62.95,0)" xlink:href="#n"/></g><g id="g"><use transform="matrix(0.05,0,0,0.05,0,0)" xlink:href="#r"/><use transform="matrix(0.05,0,0,0.05,14.950000000000001,0)" xlink:href="#i"/><use transform="matrix(0.05,0,0,0.05,24.950000000000003,0)" xlink:href="#m"/><use transform="matrix(0.05,0,0,0.05,34.95,0)" xlink:href="#t"/></g></defs></g></svg>