<svg xmlns="http://www.w3.org/2000/svg" xmlns:xlink="http://www.w3.org/1999/xlink" xmlns:lucid="lucid" width="1283" height="1311"><g transform="translate(-524 -23)" lucid:page-tab-id="0_0"><path d="M0 0h2320.5v1360H0z" fill="#fff"/><path d="M80 48c0-4.42 3.58-8 8-8h2144c4.42 0 8 3.58 8 8v62.67c0 4.4-3.58 8-8 8H88c-4.42 0-8-3.6-8-8z" stroke="#000" stroke-opacity="0" stroke-width="2" fill="#fff" fill-opacity="0"/><use xlink:href="#a" transform="matrix(1,0,0,1,84,43.999999999999986) translate(902.3495061728395 42.3036111111111)"/><use xlink:href="#b" transform="matrix(1,0,0,1,84,43.999999999999986) translate(1011.705061728395 42.3036111111111)"/><use xlink:href="#c" transform="matrix(1,0,0,1,84,43.999999999999986) translate(1150.4779012345678 42.3036111111111)"/><path d="M80 119.6c0-4.4 3.58-8 8-8h2144c4.42 0 8 3.6 8 8V152c0 4.42-3.58 8-8 8H88c-4.42 0-8-3.58-8-8z" stroke="#000" stroke-opacity="0" stroke-width="2" fill="#fff" fill-opacity="0"/><use xlink:href="#d" transform="matrix(1,0,0,1,84.00000000000114,115.61333131302212) translate(1026.6418930041152 23.805925925925923)"/><use xlink:href="#e" transform="matrix(1,0,0,1,84.00000000000114,115.61333131302212) translate(1112.9794444444444 23.805925925925923)"/><use xlink:href="#f" transform="matrix(1,0,0,1,84.00000000000114,115.61333131302212) translate(1079.31 58.17481481481481)"/><path d="M560 228c0-4.42 3.58-8 8-8h184c4.42 0 8 3.58 8 8v48c0 4.42-3.58 8-8 8H568c-4.42 0-8-3.58-8-8z" fill="#fff"/><path d="M560 180h200v40H560z" fill="#c1e4f7" fill-opacity=".4"/><path d="M560 188c0-4.42 3.58-8 8-8h184c4.42 0 8 3.58 8 8v88c0 4.42-3.58 8-8 8H568c-4.42 0-8-3.58-8-8zM560 220h200M620 220v64" stroke="#333" stroke-width="2" fill="none"/><use xlink:href="#g" transform="matrix(1,0,0,1,570,180) translate(66.5 23.6)"/><use xlink:href="#h" transform="matrix(1,0,0,1,565,222.5) translate(0 17.1)"/><use xlink:href="#i" transform="matrix(1,0,0,1,625,222.5) translate(0 17.1)"/><use xlink:href="#j" transform="matrix(1,0,0,1,625,254.5) translate(0 17.1)"/><path d="M1560 228c0-4.42 3.58-8 8-8h184c4.42 0 8 3.58 8 8v80c0 4.42-3.58 8-8 8h-184c-4.42 0-8-3.58-8-8z" fill="#fff"/><path d="M1560 180h200v40h-200z" fill="#c1e4f7" fill-opacity=".4"/><path d="M1560 188c0-4.42 3.58-8 8-8h184c4.42 0 8 3.58 8 8v120c0 4.42-3.58 8-8 8h-184c-4.42 0-8-3.58-8-8zM1560 220h200M1620 220v96" stroke="#333" stroke-width="2" fill="none"/><use xlink:href="#k" transform="matrix(1,0,0,1,1570,180) translate(49.574999999999996 23.6)"/><use xlink:href="#h" transform="matrix(1,0,0,1,1565,222.5) translate(0 17.1)"/><use xlink:href="#l" transform="matrix(1,0,0,1,1625,222.5) translate(0 17.1)"/><use xlink:href="#m" transform="matrix(1,0,0,1,1625,254.5) translate(0 17.1)"/><use xlink:href="#n" transform="matrix(1,0,0,1,1625,286.5) translate(0 17.1)"/><path d="M560 868c0-4.42 3.58-8 8-8h184c4.42 0 8 3.58 8 8v144c0 4.42-3.58 8-8 8H568c-4.42 0-8-3.58-8-8z" fill="#fff"/><path d="M560 820h200v40H560z" fill="#c1e4f7" fill-opacity=".4"/><path d="M560 828c0-4.42 3.58-8 8-8h184c4.42 0 8 3.58 8 8v184c0 4.42-3.58 8-8 8H568c-4.42 0-8-3.58-8-8zM560 860h200M620 860v160" stroke="#333" stroke-width="2" fill="none"/><use xlink:href="#o" transform="matrix(1,0,0,1,570,820) translate(71.525 23.6)"/><use xlink:href="#h" transform="matrix(1,0,0,1,565,862.5) translate(0 17.1)"/><use xlink:href="#p" transform="matrix(1,0,0,1,625,862.5) translate(0 17.1)"/><use xlink:href="#q" transform="matrix(1,0,0,1,565,894.5) translate(0 17.1)"/><use xlink:href="#r" transform="matrix(1,0,0,1,625,894.5) translate(0 17.1)"/><use xlink:href="#s" transform="matrix(1,0,0,1,565,926.5) translate(0 17.1)"/><use xlink:href="#t" transform="matrix(1,0,0,1,625,926.5) translate(0 17.1)"/><use xlink:href="#u" transform="matrix(1,0,0,1,625,958.5) translate(0 17.1)"/><use xlink:href="#v" transform="matrix(1,0,0,1,625,990.5) translate(0 17.1)"/><path d="M1560 828c0-4.42 3.58-8 8-8h184c4.42 0 8 3.58 8 8v144c0 4.42-3.58 8-8 8h-184c-4.42 0-8-3.58-8-8z" fill="#fff"/><path d="M1560 780h200v40h-200z" fill="#c1e4f7" fill-opacity=".4"/><path d="M1560 788c0-4.42 3.58-8 8-8h184c4.42 0 8 3.58 8 8v184c0 4.42-3.58 8-8 8h-184c-4.42 0-8-3.58-8-8zM1560 820h200M1620 820v160" stroke="#333" stroke-width="2" fill="none"/><use xlink:href="#w" transform="matrix(1,0,0,1,1570,780) translate(62.05 23.6)"/><use xlink:href="#h" transform="matrix(1,0,0,1,1565,822.5) translate(0 17.1)"/><use xlink:href="#x" transform="matrix(1,0,0,1,1625,822.5) translate(0 17.1)"/><use xlink:href="#y" transform="matrix(1,0,0,1,1565,854.5) translate(0.5749999999999957 17.1)"/><use xlink:href="#z" transform="matrix(1,0,0,1,1625,854.5) translate(0 17.1)"/><use xlink:href="#A" transform="matrix(1,0,0,1,1565,886.5) translate(0 17.1)"/><use xlink:href="#i" transform="matrix(1,0,0,1,1625,886.5) translate(0 17.1)"/><use xlink:href="#y" transform="matrix(1,0,0,1,1565,918.5) translate(0 17.1)"/><use xlink:href="#B" transform="matrix(1,0,0,1,1625,918.5) translate(0 17.1)"/><use xlink:href="#C" transform="matrix(1,0,0,1,1625,950.5) translate(0 17.1)"/><path d="M660 305v174" stroke="#333" stroke-width="2" fill="none"/><path d="M650 295h20M660 285v20M650 305h20M670 489h-20M660 499v-20M670 479h-20" stroke="#333" stroke-width="2" fill="#fff"/><path d="M660 657v123" stroke="#333" stroke-width="2" fill="none"/><path d="M650 647h20M660 637v20M650 657h20" stroke="#333" stroke-width="2" fill="#fff"/><path d="M650 818.55l10-20 10 20" stroke="#333" stroke-width="2" fill="#fff" fill-opacity="0"/><path d="M660 818.55v-20M670 788.55c0 5.53-4.48 10-10 10s-10-4.47-10-10c0-5.52 4.48-10 10-10s10 4.48 10 10" stroke="#333" stroke-width="2" fill="#fff"/><path d="M1660 337v403" stroke="#333" stroke-width="2" fill="none"/><path d="M1650 327h20M1660 317v20M1650 337h20" stroke="#333" stroke-width="2" fill="#fff"/><path d="M1650 778.55l10-20 10 20" stroke="#333" stroke-width="2" fill="#fff" fill-opacity="0"/><path d="M1660 778.55v-20M1670 748.55c0 5.53-4.48 10-10 10s-10-4.47-10-10c0-5.52 4.48-10 10-10s10 4.48 10 10" stroke="#333" stroke-width="2" fill="#fff"/><path d="M1040 508c0-4.42 3.58-8 8-8h184c4.42 0 8 3.58 8 8v176c0 4.42-3.58 8-8 8h-184c-4.42 0-8-3.58-8-8z" fill="#fff"/><path d="M1040 460h200v40h-200z" fill="#c1e4f7" fill-opacity=".4"/><path d="M1040 468c0-4.42 3.58-8 8-8h184c4.42 0 8 3.58 8 8v216c0 4.42-3.58 8-8 8h-184c-4.42 0-8-3.58-8-8zM1040 500h200M1100 500v192" stroke="#333" stroke-width="2" fill="none"/><use xlink:href="#D" transform="matrix(1,0,0,1,1050,460) translate(7.650000000000006 23.6)"/><use xlink:href="#h" transform="matrix(1,0,0,1,1045,502.5) translate(0 17.1)"/><use xlink:href="#E" transform="matrix(1,0,0,1,1105,502.5) translate(0 17.1)"/><use xlink:href="#F" transform="matrix(1,0,0,1,1045,534.5) translate(0 17.1)"/><use xlink:href="#G" transform="matrix(1,0,0,1,1105,534.5) translate(0 17.1)"/><use xlink:href="#H" transform="matrix(1,0,0,1,1105,566.5) translate(0 17.1)"/><use xlink:href="#I" transform="matrix(1,0,0,1,1105,598.5) translate(0 17.1)"/><use xlink:href="#J" transform="matrix(1,0,0,1,1105,630.5) translate(0 17.1)"/><use xlink:href="#K" transform="matrix(1,0,0,1,1105,662.5) translate(0 17.1)"/><path d="M800 200h352.75c.05 0 .08-.04.08-.08s.04-.08.08-.08h367.26" stroke="#333" stroke-width="2" fill="none"/><path d="M761.45 190l20 10-20 10" stroke="#333" stroke-width="2" fill="#fff" fill-opacity="0"/><path d="M761.45 200h20M801.45 200c0 5.52-4.48 10-10 10-5.53 0-10-4.48-10-10s4.47-10 10-10c5.52 0 10 4.48 10 10" stroke="#333" stroke-width="2" fill="#fff"/><path d="M1558.5 210l-19.95-10.08 20.04-9.92" stroke="#333" stroke-width="2" fill="#fff" fill-opacity="0"/><path d="M1558.55 200l-20-.08M1538.55 199.87c0 5.53-4.47 10-10 10-5.52 0-10-4.47-10-10 0-5.52 4.48-10 10-10 5.53 0 10 4.48 10 10" stroke="#333" stroke-width="2" fill="#fff"/><path d="M480 648c0-4.42 3.58-8 8-8h224c4.42 0 8 3.58 8 8v44c0 4.42-3.58 8-8 8H488c-4.42 0-8-3.58-8-8z" stroke="#000" stroke-opacity="0" stroke-width="2" fill="#fff" fill-opacity="0"/><use xlink:href="#L" transform="matrix(1,0,0,1,485,645) translate(80.55 30.025)"/><path d="M600 728c0-4.42 3.58-8 8-8h224c4.42 0 8 3.58 8 8v44c0 4.42-3.58 8-8 8H608c-4.42 0-8-3.58-8-8z" stroke="#000" stroke-opacity="0" stroke-width="2" fill="#fff" fill-opacity="0"/><use xlink:href="#M" transform="matrix(1,0,0,1,605,725) translate(68.05 30.025)"/><use xlink:href="#N" transform="matrix(1,0,0,1,605,725) translate(142.95 30.025)"/><path d="M1320 148c0-4.42 3.58-8 8-8h224c4.42 0 8 3.58 8 8v44c0 4.42-3.58 8-8 8h-224c-4.42 0-8-3.58-8-8z" stroke="#000" stroke-opacity="0" stroke-width="2" fill="#fff" fill-opacity="0"/><use xlink:href="#O" transform="matrix(1,0,0,1,1325,145) translate(74.55 30.025)"/><use xlink:href="#P" transform="matrix(1,0,0,1,1325,145) translate(119.55 30.025)"/><path d="M720 208c0-4.42 3.58-8 8-8h224c4.42 0 8 3.58 8 8v44c0 4.42-3.58 8-8 8H728c-4.42 0-8-3.58-8-8z" stroke="#000" stroke-opacity="0" stroke-width="2" fill="#fff" fill-opacity="0"/><use xlink:href="#Q" transform="matrix(1,0,0,1,725,205) translate(85.55 30.025)"/><use xlink:href="#R" transform="matrix(1,0,0,1,725,205) translate(129.45 30.025)"/><path d="M1480 348c0-4.42 3.58-8 8-8h224c4.42 0 8 3.58 8 8v44c0 4.42-3.58 8-8 8h-224c-4.42 0-8-3.58-8-8z" stroke="#000" stroke-opacity="0" stroke-width="2" fill="#fff" fill-opacity="0"/><use xlink:href="#S" transform="matrix(1,0,0,1,1485,345) translate(88.025 30.025)"/><path d="M1600 688c0-4.42 3.58-8 8-8h224c4.42 0 8 3.58 8 8v44c0 4.42-3.58 8-8 8h-224c-4.42 0-8-3.58-8-8z" stroke="#000" stroke-opacity="0" stroke-width="2" fill="#fff" fill-opacity="0"/><use xlink:href="#T" transform="matrix(1,0,0,1,1605,685) translate(75.525 30.025)"/><use xlink:href="#N" transform="matrix(1,0,0,1,1605,685) translate(135.47500000000002 30.025)"/><path d="M781 867.88h739" stroke="#333" stroke-width="2" fill="none"/><path d="M761.45 857.88l20 10-20 10" stroke="#333" stroke-width="2" fill="#fff" fill-opacity="0"/><path d="M761.45 867.88h20M781.45 877.88v-20M1549 857.88v20M1559 867.88h-20M1539 867.88c0 5.52-4.48 10-10 10s-10-4.48-10-10 4.48-10 10-10 10 4.48 10 10" stroke="#333" stroke-width="2" fill="#fff"/><path d="M1140 420V248c0-6.63 5.37-12 12-12h387" stroke="#333" stroke-width="2" fill="none"/><path d="M1150 449h-20M1140 459v-20M1150 429c0 5.52-4.48 10-10 10s-10-4.48-10-10 4.48-10 10-10 10 4.48 10 10M1549 226v20M1559 236h-20M1539 226v20" stroke="#333" stroke-width="2" fill="#fff"/><path d="M940 408c0-4.42 3.58-8 8-8h224c4.42 0 8 3.58 8 8v44c0 4.42-3.58 8-8 8H948c-4.42 0-8-3.58-8-8z" stroke="#000" stroke-opacity="0" stroke-width="2" fill="#fff" fill-opacity="0"/><use xlink:href="#M" transform="matrix(1,0,0,1,945,405) translate(68.05 30.025)"/><use xlink:href="#N" transform="matrix(1,0,0,1,945,405) translate(142.95 30.025)"/><path d="M1320 248c0-4.42 3.58-8 8-8h224c4.42 0 8 3.58 8 8v44c0 4.42-3.58 8-8 8h-224c-4.42 0-8-3.58-8-8z" stroke="#000" stroke-opacity="0" stroke-width="2" fill="#fff" fill-opacity="0"/><use xlink:href="#U" transform="matrix(1,0,0,1,1325,245) translate(78.05 30.025)"/><use xlink:href="#V" transform="matrix(1,0,0,1,1325,245) translate(83.05 30.025)"/><path d="M740 808c0-4.42 3.58-8 8-8h224c4.42 0 8 3.58 8 8v44c0 4.42-3.58 8-8 8H748c-4.42 0-8-3.58-8-8z" stroke="#000" stroke-opacity="0" stroke-width="2" fill="#fff" fill-opacity="0"/><use xlink:href="#W" transform="matrix(1,0,0,1,745,805) translate(68.525 30.025)"/><use xlink:href="#X" transform="matrix(1,0,0,1,745,805) translate(141.47500000000002 30.025)"/><path d="M1340 868c0-4.42 3.58-8 8-8h224c4.42 0 8 3.58 8 8v44c0 4.42-3.58 8-8 8h-224c-4.42 0-8-3.58-8-8z" stroke="#000" stroke-opacity="0" stroke-width="2" fill="#fff" fill-opacity="0"/><use xlink:href="#Y" transform="matrix(1,0,0,1,1345,865) translate(81.525 30.025)"/><path d="M600 1048c0-4.42 3.58-8 8-8h1144c4.42 0 8 3.58 8 8v307c0 4.42-3.58 8-8 8H608c-4.42 0-8-3.58-8-8z" fill="#fff" fill-opacity="0"/><use xlink:href="#Z" transform="matrix(1,0,0,1,605,1045) translate(0 73.0875)"/><use xlink:href="#aa" transform="matrix(1,0,0,1,605,1045) translate(73.9 73.0875)"/><use xlink:href="#ab" transform="matrix(1,0,0,1,605,1045) translate(0 94.6875)"/><use xlink:href="#ac" transform="matrix(1,0,0,1,605,1045) translate(0 116.2875)"/><use xlink:href="#ad" transform="matrix(1,0,0,1,605,1045) translate(16 116.2875)"/><use xlink:href="#ae" transform="matrix(1,0,0,1,605,1045) translate(63.85 116.2875)"/><use xlink:href="#af" transform="matrix(1,0,0,1,605,1045) translate(97.85 116.2875)"/><use xlink:href="#ag" transform="matrix(1,0,0,1,605,1045) translate(132.85 116.2875)"/><use xlink:href="#ah" transform="matrix(1,0,0,1,605,1045) translate(167.85 116.2875)"/><use xlink:href="#af" transform="matrix(1,0,0,1,605,1045) translate(205.8 116.2875)"/><use xlink:href="#ai" transform="matrix(1,0,0,1,605,1045) translate(240.8 116.2875)"/><use xlink:href="#aj" transform="matrix(1,0,0,1,605,1045) translate(326.70000000000005 116.2875)"/><use xlink:href="#ak" transform="matrix(1,0,0,1,605,1045) translate(342.70000000000005 116.2875)"/><use xlink:href="#al" transform="matrix(1,0,0,1,605,1045) translate(423.6 116.2875)"/><use xlink:href="#am" transform="matrix(1,0,0,1,605,1045) translate(491.55 116.2875)"/><use xlink:href="#af" transform="matrix(1,0,0,1,605,1045) translate(511.55 116.2875)"/><use xlink:href="#ag" transform="matrix(1,0,0,1,605,1045) translate(546.55 116.2875)"/><use xlink:href="#ah" transform="matrix(1,0,0,1,605,1045) translate(581.55 116.2875)"/><use xlink:href="#af" transform="matrix(1,0,0,1,605,1045) translate(619.5 116.2875)"/><use xlink:href="#an" transform="matrix(1,0,0,1,605,1045) translate(654.5 116.2875)"/><use xlink:href="#ao" transform="matrix(1,0,0,1,605,1045) translate(720.01 116.2875)"/><use xlink:href="#ao" transform="matrix(1,0,0,1,605,1045) translate(756.01 116.2875)"/><use xlink:href="#ao" transform="matrix(1,0,0,1,605,1045) translate(792.01 116.2875)"/><use xlink:href="#ao" transform="matrix(1,0,0,1,605,1045) translate(828.01 116.2875)"/><use xlink:href="#ao" transform="matrix(1,0,0,1,605,1045) translate(864.01 116.2875)"/><use xlink:href="#ao" transform="matrix(1,0,0,1,605,1045) translate(900.01 116.2875)"/><use xlink:href="#ao" transform="matrix(1,0,0,1,605,1045) translate(936.01 116.2875)"/><use xlink:href="#ao" transform="matrix(1,0,0,1,605,1045) translate(972.01 116.2875)"/><use xlink:href="#ao" transform="matrix(1,0,0,1,605,1045) translate(1008.01 116.2875)"/><use xlink:href="#ao" transform="matrix(1,0,0,1,605,1045) translate(1044.01 116.2875)"/><use xlink:href="#ap" transform="matrix(1,0,0,1,605,1045) translate(1080.01 116.2875)"/><use xlink:href="#ac" transform="matrix(1,0,0,1,605,1045) translate(0 137.8875)"/><use xlink:href="#ak" transform="matrix(1,0,0,1,605,1045) translate(16 137.8875)"/><use xlink:href="#aq" transform="matrix(1,0,0,1,605,1045) translate(96.9 137.8875)"/><use xlink:href="#ar" transform="matrix(1,0,0,1,605,1045) translate(135.85000000000002 137.8875)"/><use xlink:href="#as" transform="matrix(1,0,0,1,605,1045) translate(192.8 137.8875)"/><use xlink:href="#at" transform="matrix(1,0,0,1,605,1045) translate(242.8 137.8875)"/><use xlink:href="#au" transform="matrix(1,0,0,1,605,1045) translate(282.8 137.8875)"/><use xlink:href="#av" transform="matrix(1,0,0,1,605,1045) translate(303.75 137.8875)"/><use xlink:href="#aw" transform="matrix(1,0,0,1,605,1045) translate(352.7 137.8875)"/><use xlink:href="#ax" transform="matrix(1,0,0,1,605,1045) translate(405.59999999999997 137.8875)"/><use xlink:href="#ay" transform="matrix(1,0,0,1,605,1045) translate(432.59999999999997 137.8875)"/><use xlink:href="#az" transform="matrix(1,0,0,1,605,1045) translate(471.49999999999994 137.8875)"/><use xlink:href="#aA" transform="matrix(1,0,0,1,605,1045) translate(515.4499999999999 137.8875)"/><use xlink:href="#aB" transform="matrix(1,0,0,1,605,1045) translate(540.4499999999999 137.8875)"/><use xlink:href="#aC" transform="matrix(1,0,0,1,605,1045) translate(612.3499999999999 137.8875)"/><use xlink:href="#af" transform="matrix(1,0,0,1,605,1045) translate(636.3499999999999 137.8875)"/><use xlink:href="#ag" transform="matrix(1,0,0,1,605,1045) translate(671.3499999999999 137.8875)"/><use xlink:href="#ah" transform="matrix(1,0,0,1,605,1045) translate(706.3499999999999 137.8875)"/><use xlink:href="#af" transform="matrix(1,0,0,1,605,1045) translate(744.3 137.8875)"/><use xlink:href="#aD" transform="matrix(1,0,0,1,605,1045) translate(779.3 137.8875)"/><use xlink:href="#ao" transform="matrix(1,0,0,1,605,1045) translate(864.01 137.8875)"/><use xlink:href="#ao" transform="matrix(1,0,0,1,605,1045) translate(900.01 137.8875)"/><use xlink:href="#ao" transform="matrix(1,0,0,1,605,1045) translate(936.01 137.8875)"/><use xlink:href="#ao" transform="matrix(1,0,0,1,605,1045) translate(972.01 137.8875)"/><use xlink:href="#ao" transform="matrix(1,0,0,1,605,1045) translate(1008.01 137.8875)"/><use xlink:href="#ao" transform="matrix(1,0,0,1,605,1045) translate(1044.01 137.8875)"/><use xlink:href="#aE" transform="matrix(1,0,0,1,605,1045) translate(1080.01 137.8875)"/><use xlink:href="#aF" transform="matrix(1,0,0,1,605,1045) translate(0 159.48749999999998)"/><use xlink:href="#ay" transform="matrix(1,0,0,1,605,1045) translate(27 159.48749999999998)"/><use xlink:href="#aq" transform="matrix(1,0,0,1,605,1045) translate(65.9 159.48749999999998)"/><use xlink:href="#aA" transform="matrix(1,0,0,1,605,1045) translate(104.85000000000001 159.48749999999998)"/><use xlink:href="#aG" transform="matrix(1,0,0,1,605,1045) translate(129.85000000000002 159.48749999999998)"/><use xlink:href="#aH" transform="matrix(1,0,0,1,605,1045) translate(201.75000000000003 159.48749999999998)"/><use xlink:href="#as" transform="matrix(1,0,0,1,605,1045) translate(226.75000000000003 159.48749999999998)"/><use xlink:href="#af" transform="matrix(1,0,0,1,605,1045) translate(276.75 159.48749999999998)"/><use xlink:href="#au" transform="matrix(1,0,0,1,605,1045) translate(311.75 159.48749999999998)"/><use xlink:href="#av" transform="matrix(1,0,0,1,605,1045) translate(332.7 159.48749999999998)"/><use xlink:href="#aI" transform="matrix(1,0,0,1,605,1045) translate(381.65 159.48749999999998)"/><use xlink:href="#ax" transform="matrix(1,0,0,1,605,1045) translate(454.45 159.48749999999998)"/><use xlink:href="#aJ" transform="matrix(1,0,0,1,605,1045) translate(481.45 159.48749999999998)"/><use xlink:href="#az" transform="matrix(1,0,0,1,605,1045) translate(528.35 159.48749999999998)"/><use xlink:href="#aK" transform="matrix(1,0,0,1,605,1045) translate(572.3000000000001 159.48749999999998)"/><use xlink:href="#af" transform="matrix(1,0,0,1,605,1045) translate(634.2 159.48749999999998)"/><use xlink:href="#au" transform="matrix(1,0,0,1,605,1045) translate(669.2 159.48749999999998)"/><use xlink:href="#av" transform="matrix(1,0,0,1,605,1045) translate(690.1500000000001 159.48749999999998)"/><use xlink:href="#aL" transform="matrix(1,0,0,1,605,1045) translate(739.1000000000001 159.48749999999998)"/><use xlink:href="#ao" transform="matrix(1,0,0,1,605,1045) translate(792.01 159.48749999999998)"/><use xlink:href="#ao" transform="matrix(1,0,0,1,605,1045) translate(828.01 159.48749999999998)"/><use xlink:href="#ao" transform="matrix(1,0,0,1,605,1045) translate(864.01 159.48749999999998)"/><use xlink:href="#ao" transform="matrix(1,0,0,1,605,1045) translate(900.01 159.48749999999998)"/><use xlink:href="#ao" transform="matrix(1,0,0,1,605,1045) translate(936.01 159.48749999999998)"/><use xlink:href="#ao" transform="matrix(1,0,0,1,605,1045) translate(972.01 159.48749999999998)"/><use xlink:href="#ao" transform="matrix(1,0,0,1,605,1045) translate(1008.01 159.48749999999998)"/><use xlink:href="#ao" transform="matrix(1,0,0,1,605,1045) translate(1044.01 159.48749999999998)"/><use xlink:href="#aE" transform="matrix(1,0,0,1,605,1045) translate(1080.01 159.48749999999998)"/><use xlink:href="#ac" transform="matrix(1,0,0,1,605,1045) translate(0 181.08749999999998)"/><use xlink:href="#ad" transform="matrix(1,0,0,1,605,1045) translate(16 181.08749999999998)"/><use xlink:href="#aq" transform="matrix(1,0,0,1,605,1045) translate(63.85 181.08749999999998)"/><use xlink:href="#aM" transform="matrix(1,0,0,1,605,1045) translate(102.80000000000001 181.08749999999998)"/><use xlink:href="#am" transform="matrix(1,0,0,1,605,1045) translate(134.70000000000002 181.08749999999998)"/><use xlink:href="#as" transform="matrix(1,0,0,1,605,1045) translate(154.70000000000002 181.08749999999998)"/><use xlink:href="#af" transform="matrix(1,0,0,1,605,1045) translate(204.70000000000002 181.08749999999998)"/><use xlink:href="#au" transform="matrix(1,0,0,1,605,1045) translate(239.70000000000002 181.08749999999998)"/><use xlink:href="#av" transform="matrix(1,0,0,1,605,1045) translate(260.65000000000003 181.08749999999998)"/><use xlink:href="#aN" transform="matrix(1,0,0,1,605,1045) translate(309.6 181.08749999999998)"/><use xlink:href="#aj" transform="matrix(1,0,0,1,605,1045) translate(402.5 181.08749999999998)"/><use xlink:href="#aO" transform="matrix(1,0,0,1,605,1045) translate(418.5 181.08749999999998)"/><use xlink:href="#aq" transform="matrix(1,0,0,1,605,1045) translate(497.4 181.08749999999998)"/><use xlink:href="#aP" transform="matrix(1,0,0,1,605,1045) translate(536.35 181.08749999999998)"/><use xlink:href="#aQ" transform="matrix(1,0,0,1,605,1045) translate(570.35 181.08749999999998)"/><use xlink:href="#as" transform="matrix(1,0,0,1,605,1045) translate(611.25 181.08749999999998)"/><use xlink:href="#af" transform="matrix(1,0,0,1,605,1045) translate(661.25 181.08749999999998)"/><use xlink:href="#au" transform="matrix(1,0,0,1,605,1045) translate(696.25 181.08749999999998)"/><use xlink:href="#av" transform="matrix(1,0,0,1,605,1045) translate(717.2 181.08749999999998)"/><use xlink:href="#aR" transform="matrix(1,0,0,1,605,1045) translate(766.1500000000001 181.08749999999998)"/><use xlink:href="#ao" transform="matrix(1,0,0,1,605,1045) translate(828.01 181.08749999999998)"/><use xlink:href="#ao" transform="matrix(1,0,0,1,605,1045) translate(864.01 181.08749999999998)"/><use xlink:href="#ao" transform="matrix(1,0,0,1,605,1045) translate(900.01 181.08749999999998)"/><use xlink:href="#ao" transform="matrix(1,0,0,1,605,1045) translate(936.01 181.08749999999998)"/><use xlink:href="#ao" transform="matrix(1,0,0,1,605,1045) translate(972.01 181.08749999999998)"/><use xlink:href="#ao" transform="matrix(1,0,0,1,605,1045) translate(1008.01 181.08749999999998)"/><use xlink:href="#ao" transform="matrix(1,0,0,1,605,1045) translate(1044.01 181.08749999999998)"/><use xlink:href="#aS" transform="matrix(1,0,0,1,605,1045) translate(1080.01 181.08749999999998)"/><use xlink:href="#ac" transform="matrix(1,0,0,1,605,1045) translate(0 202.68749999999997)"/><use xlink:href="#aO" transform="matrix(1,0,0,1,605,1045) translate(16 202.68749999999997)"/><use xlink:href="#aq" transform="matrix(1,0,0,1,605,1045) translate(94.9 202.68749999999997)"/><use xlink:href="#aT" transform="matrix(1,0,0,1,605,1045) translate(133.85000000000002 202.68749999999997)"/><use xlink:href="#as" transform="matrix(1,0,0,1,605,1045) translate(181.8 202.68749999999997)"/><use xlink:href="#af" transform="matrix(1,0,0,1,605,1045) translate(231.8 202.68749999999997)"/><use xlink:href="#au" transform="matrix(1,0,0,1,605,1045) translate(266.8 202.68749999999997)"/><use xlink:href="#av" transform="matrix(1,0,0,1,605,1045) translate(287.75 202.68749999999997)"/><use xlink:href="#aI" transform="matrix(1,0,0,1,605,1045) translate(336.7 202.68749999999997)"/><use xlink:href="#ax" transform="matrix(1,0,0,1,605,1045) translate(409.5 202.68749999999997)"/><use xlink:href="#aU" transform="matrix(1,0,0,1,605,1045) translate(436.5 202.68749999999997)"/><use xlink:href="#aV" transform="matrix(1,0,0,1,605,1045) translate(487.4 202.68749999999997)"/><use xlink:href="#aW" transform="matrix(1,0,0,1,605,1045) translate(501.34999999999997 202.68749999999997)"/><use xlink:href="#aX" transform="matrix(1,0,0,1,605,1045) translate(515.3 202.68749999999997)"/><use xlink:href="#az" transform="matrix(1,0,0,1,605,1045) translate(571.25 202.68749999999997)"/><use xlink:href="#aY" transform="matrix(1,0,0,1,605,1045) translate(615.2 202.68749999999997)"/><use xlink:href="#am" transform="matrix(1,0,0,1,605,1045) translate(674.1500000000001 202.68749999999997)"/><use xlink:href="#at" transform="matrix(1,0,0,1,605,1045) translate(694.1500000000001 202.68749999999997)"/><use xlink:href="#ag" transform="matrix(1,0,0,1,605,1045) translate(734.1500000000001 202.68749999999997)"/><use xlink:href="#ah" transform="matrix(1,0,0,1,605,1045) translate(769.1500000000001 202.68749999999997)"/><use xlink:href="#at" transform="matrix(1,0,0,1,605,1045) translate(807.1000000000001 202.68749999999997)"/><use xlink:href="#aZ" transform="matrix(1,0,0,1,605,1045) translate(847.1000000000001 202.68749999999997)"/><use xlink:href="#ao" transform="matrix(1,0,0,1,605,1045) translate(936.01 202.68749999999997)"/><use xlink:href="#ao" transform="matrix(1,0,0,1,605,1045) translate(972.01 202.68749999999997)"/><use xlink:href="#ao" transform="matrix(1,0,0,1,605,1045) translate(1008.01 202.68749999999997)"/><use xlink:href="#ao" transform="matrix(1,0,0,1,605,1045) translate(1044.01 202.68749999999997)"/><use xlink:href="#aE" transform="matrix(1,0,0,1,605,1045) translate(1080.01 202.68749999999997)"/><use xlink:href="#ac" transform="matrix(1,0,0,1,605,1045) translate(0 224.28749999999997)"/><use xlink:href="#aO" transform="matrix(1,0,0,1,605,1045) translate(16 224.28749999999997)"/><use xlink:href="#ba" transform="matrix(1,0,0,1,605,1045) translate(94.9 224.28749999999997)"/><use xlink:href="#au" transform="matrix(1,0,0,1,605,1045) translate(139.9 224.28749999999997)"/><use xlink:href="#af" transform="matrix(1,0,0,1,605,1045) translate(160.85 224.28749999999997)"/><use xlink:href="#bb" transform="matrix(1,0,0,1,605,1045) translate(195.85 224.28749999999997)"/><use xlink:href="#bc" transform="matrix(1,0,0,1,605,1045) translate(353.70000000000005 224.28749999999997)"/><use xlink:href="#bb" transform="matrix(1,0,0,1,605,1045) translate(392.65000000000003 224.28749999999997)"/><use xlink:href="#bd" transform="matrix(1,0,0,1,605,1045) translate(550.5 224.28749999999997)"/><use xlink:href="#az" transform="matrix(1,0,0,1,605,1045) translate(584.45 224.28749999999997)"/><use xlink:href="#aA" transform="matrix(1,0,0,1,605,1045) translate(628.4000000000001 224.28749999999997)"/><use xlink:href="#aB" transform="matrix(1,0,0,1,605,1045) translate(653.4000000000001 224.28749999999997)"/><use xlink:href="#aC" transform="matrix(1,0,0,1,605,1045) translate(725.3000000000001 224.28749999999997)"/><use xlink:href="#at" transform="matrix(1,0,0,1,605,1045) translate(749.3000000000001 224.28749999999997)"/><use xlink:href="#ag" transform="matrix(1,0,0,1,605,1045) translate(789.3000000000001 224.28749999999997)"/><use xlink:href="#ah" transform="matrix(1,0,0,1,605,1045) translate(824.3000000000001 224.28749999999997)"/><use xlink:href="#at" transform="matrix(1,0,0,1,605,1045) translate(862.2500000000001 224.28749999999997)"/><use xlink:href="#aZ" transform="matrix(1,0,0,1,605,1045) translate(902.2500000000001 224.28749999999997)"/><use xlink:href="#ao" transform="matrix(1,0,0,1,605,1045) translate(1008.01 224.28749999999997)"/><use xlink:href="#ao" transform="matrix(1,0,0,1,605,1045) translate(1044.01 224.28749999999997)"/><use xlink:href="#be" transform="matrix(1,0,0,1,605,1045) translate(1080.01 224.28749999999997)"/><use xlink:href="#aF" transform="matrix(1,0,0,1,605,1045) translate(0 245.88749999999996)"/><use xlink:href="#aJ" transform="matrix(1,0,0,1,605,1045) translate(27 245.88749999999996)"/><use xlink:href="#bf" transform="matrix(1,0,0,1,605,1045) translate(73.9 245.88749999999996)"/><use xlink:href="#af" transform="matrix(1,0,0,1,605,1045) translate(116.9 245.88749999999996)"/><use xlink:href="#ag" transform="matrix(1,0,0,1,605,1045) translate(151.9 245.88749999999996)"/><use xlink:href="#ah" transform="matrix(1,0,0,1,605,1045) translate(186.9 245.88749999999996)"/><use xlink:href="#af" transform="matrix(1,0,0,1,605,1045) translate(224.85000000000002 245.88749999999996)"/><use xlink:href="#bg" transform="matrix(1,0,0,1,605,1045) translate(259.85 245.88749999999996)"/><use xlink:href="#aj" transform="matrix(1,0,0,1,605,1045) translate(422.70000000000005 245.88749999999996)"/><use xlink:href="#bb" transform="matrix(1,0,0,1,605,1045) translate(438.70000000000005 245.88749999999996)"/><use xlink:href="#bh" transform="matrix(1,0,0,1,605,1045) translate(596.5500000000001 245.88749999999996)"/><use xlink:href="#aA" transform="matrix(1,0,0,1,605,1045) translate(630.5500000000001 245.88749999999996)"/><use xlink:href="#bi" transform="matrix(1,0,0,1,605,1045) translate(655.5500000000001 245.88749999999996)"/><use xlink:href="#bj" transform="matrix(1,0,0,1,605,1045) translate(699.5500000000001 245.88749999999996)"/><use xlink:href="#as" transform="matrix(1,0,0,1,605,1045) translate(725.5000000000001 245.88749999999996)"/><use xlink:href="#at" transform="matrix(1,0,0,1,605,1045) translate(775.5000000000001 245.88749999999996)"/><use xlink:href="#au" transform="matrix(1,0,0,1,605,1045) translate(815.5000000000001 245.88749999999996)"/><use xlink:href="#av" transform="matrix(1,0,0,1,605,1045) translate(836.4500000000002 245.88749999999996)"/><use xlink:href="#bk" transform="matrix(1,0,0,1,605,1045) translate(885.4000000000002 245.88749999999996)"/><use xlink:href="#ao" transform="matrix(1,0,0,1,605,1045) translate(972.01 245.88749999999996)"/><use xlink:href="#ao" transform="matrix(1,0,0,1,605,1045) translate(1008.01 245.88749999999996)"/><use xlink:href="#ao" transform="matrix(1,0,0,1,605,1045) translate(1044.01 245.88749999999996)"/><use xlink:href="#bl" transform="matrix(1,0,0,1,605,1045) translate(1080.01 245.88749999999996)"/><path d="M560 548c0-4.42 3.58-8 8-8h184c4.42 0 8 3.58 8 8v80c0 4.42-3.58 8-8 8H568c-4.42 0-8-3.58-8-8z" fill="#fff"/><path d="M560 500h200v40H560z" fill="#c1e4f7" fill-opacity=".4"/><path d="M560 508c0-4.42 3.58-8 8-8h184c4.42 0 8 3.58 8 8v120c0 4.42-3.58 8-8 8H568c-4.42 0-8-3.58-8-8zM560 540h200M620 540v96" stroke="#333" stroke-width="2" fill="none"/><g><use xlink:href="#bm" transform="matrix(1,0,0,1,570,500) translate(47.65 23.6)"/></g><g><use xlink:href="#h" transform="matrix(1,0,0,1,565,542.5) translate(0 17.1)"/></g><g><use xlink:href="#bn" transform="matrix(1,0,0,1,625,542.5) translate(0 17.1)"/></g><g><use xlink:href="#bo" transform="matrix(1,0,0,1,565,574.5) translate(0 17.1)"/></g><g><use xlink:href="#bp" transform="matrix(1,0,0,1,625,574.5) translate(0 17.1)"/></g><g><use xlink:href="#bq" transform="matrix(1,0,0,1,625,606.5) translate(0 16.966675555555554)"/></g><path d="M1520 836h-108c-6.63 0-12-5.37-12-12V560c0-6.63-5.37-12-12-12h-127" stroke="#333" stroke-width="2" fill="none"/><path d="M1558.55 846l-20-10 20-10" stroke="#333" stroke-width="2" fill="#fff" fill-opacity="0"/><path d="M1558.55 836h-20M1538.55 836c0 5.52-4.47 10-10 10-5.52 0-10-4.48-10-10s4.48-10 10-10c5.53 0 10 4.48 10 10M1251 558v-20M1241 548h20M1261 558v-20" stroke="#333" stroke-width="2" fill="#fff"/><path d="M1200 508c0-4.42 3.58-8 8-8h224c4.42 0 8 3.58 8 8v44c0 4.42-3.58 8-8 8h-224c-4.42 0-8-3.58-8-8z" stroke="#000" stroke-opacity="0" stroke-width="2" fill="#fff" fill-opacity="0"/><g><use xlink:href="#br" transform="matrix(1,0,0,1,1205,505) translate(81.05 30.025)"/><use xlink:href="#bs" transform="matrix(1,0,0,1,1205,505) translate(128 30.025)"/></g><path d="M1360 788c0-4.42 3.58-8 8-8h224c4.42 0 8 3.58 8 8v44c0 4.42-3.58 8-8 8h-224c-4.42 0-8-3.58-8-8z" stroke="#000" stroke-opacity="0" stroke-width="2" fill="#fff" fill-opacity="0"/><g><use xlink:href="#bt" transform="matrix(1,0,0,1,1365,785) translate(94.525 30.025)"/></g><path d="M480 428c0-4.42 3.58-8 8-8h224c4.42 0 8 3.58 8 8v44c0 4.42-3.58 8-8 8H488c-4.42 0-8-3.58-8-8z" stroke="#000" stroke-opacity="0" stroke-width="2" fill="#fff" fill-opacity="0"/><g><use xlink:href="#bu" transform="matrix(1,0,0,1,485,425) translate(72.525 30.025)"/><use xlink:href="#R" transform="matrix(1,0,0,1,485,425) translate(142.47500000000002 30.025)"/></g><path d="M600 328c0-4.42 3.58-8 8-8h224c4.42 0 8 3.58 8 8v44c0 4.42-3.58 8-8 8H608c-4.42 0-8-3.58-8-8z" stroke="#000" stroke-opacity="0" stroke-width="2" fill="#fff" fill-opacity="0"/><g><use xlink:href="#bv" transform="matrix(1,0,0,1,605,325) translate(99.025 30.025)"/></g><defs><path d="M24-248c120-7 223 5 221 122C244-46 201 0 124 0H24v-248zM76-40c74 7 117-18 117-86 0-67-45-88-117-82v168" id="bw"/><path d="M25-224v-37h50v37H25zM25 0v-190h50V0H25" id="bx"/><path d="M195-6C206 82 75 100 31 46c-4-6-6-13-8-21l49-6c3 16 16 24 34 25 40 0 42-37 40-79-11 22-30 35-61 35-53 0-70-43-70-97 0-56 18-96 73-97 30 0 46 14 59 34l2-30h47zm-90-29c32 0 41-27 41-63 0-35-9-62-40-62-32 0-39 29-40 63 0 36 9 62 39 62" id="by"/><path d="M115-3C79 11 28 4 28-45v-112H4v-33h27l15-45h31v45h36v33H77v99c-1 23 16 31 38 25v30" id="bz"/><path d="M133-34C117-15 103 5 69 4 32 3 11-16 11-54c-1-60 55-63 116-61 1-26-3-47-28-47-18 1-26 9-28 27l-52-2c7-38 36-58 82-57s74 22 75 68l1 82c-1 14 12 18 25 15v27c-30 8-71 5-69-32zm-48 3c29 0 43-24 42-57-32 0-66-3-65 30 0 17 8 27 23 27" id="bA"/><path d="M25 0v-261h50V0H25" id="bB"/><g id="a"><use transform="matrix(0.091358024691358,0,0,0.091358024691358,0,0)" xlink:href="#bw"/><use transform="matrix(0.091358024691358,0,0,0.091358024691358,23.661728395061722,0)" xlink:href="#bx"/><use transform="matrix(0.091358024691358,0,0,0.091358024691358,32.79753086419752,0)" xlink:href="#by"/><use transform="matrix(0.091358024691358,0,0,0.091358024691358,52.80493827160492,0)" xlink:href="#bx"/><use transform="matrix(0.091358024691358,0,0,0.091358024691358,61.94074074074071,0)" xlink:href="#bz"/><use transform="matrix(0.091358024691358,0,0,0.091358024691358,72.81234567901231,0)" xlink:href="#bA"/><use transform="matrix(0.091358024691358,0,0,0.091358024691358,91.0839506172839,0)" xlink:href="#bB"/></g><path d="M76-208v77h127v40H76V0H24v-248h183v40H76" id="bC"/><path d="M135-150c-39-12-60 13-60 57V0H25l-1-190h47c2 13-1 29 3 40 6-28 27-53 61-41v41" id="bD"/><path d="M220-157c-53 9-28 100-34 157h-49v-107c1-27-5-49-29-50C55-147 81-57 75 0H25l-1-190h47c2 12-1 28 3 38 10-53 101-56 108 0 13-22 24-43 59-42 82 1 51 116 57 194h-49v-107c-1-25-5-48-29-50" id="bE"/><path d="M185-48c-13 30-37 53-82 52C43 2 14-33 14-96s30-98 90-98c62 0 83 45 84 108H66c0 31 8 55 39 56 18 0 30-7 34-22zm-45-69c5-46-57-63-70-21-2 6-4 13-4 21h74" id="bF"/><path d="M137-138c1-29-70-34-71-4 15 46 118 7 119 86 1 83-164 76-172 9l43-7c4 19 20 25 44 25 33 8 57-30 24-41C81-84 22-81 20-136c-2-80 154-74 161-7" id="bG"/><g id="b"><use transform="matrix(0.091358024691358,0,0,0.091358024691358,0,0)" xlink:href="#bC"/><use transform="matrix(0.091358024691358,0,0,0.091358024691358,20.0074074074074,0)" xlink:href="#bA"/><use transform="matrix(0.091358024691358,0,0,0.091358024691358,38.27901234567899,0)" xlink:href="#bD"/><use transform="matrix(0.091358024691358,0,0,0.091358024691358,51.069135802469106,0)" xlink:href="#bE"/><use transform="matrix(0.091358024691358,0,0,0.091358024691358,80.30370370370368,0)" xlink:href="#bF"/><use transform="matrix(0.091358024691358,0,0,0.091358024691358,98.57530864197528,0)" xlink:href="#bD"/><use transform="matrix(0.091358024691358,0,0,0.091358024691358,111.36543209876537,0)" xlink:href="#bG"/></g><path d="M230 0l2-204L168 0h-37L68-204 70 0H24v-248h70l56 185 57-185h69V0h-46" id="bH"/><path d="M147 0L96-86 75-71V0H25v-261h50v150l67-79h53l-66 74L201 0h-54" id="bI"/><g id="c"><use transform="matrix(0.091358024691358,0,0,0.091358024691358,0,0)" xlink:href="#bH"/><use transform="matrix(0.091358024691358,0,0,0.091358024691358,27.31604938271604,0)" xlink:href="#bA"/><use transform="matrix(0.091358024691358,0,0,0.091358024691358,45.58765432098764,0)" xlink:href="#bD"/><use transform="matrix(0.091358024691358,0,0,0.091358024691358,58.37777777777776,0)" xlink:href="#bI"/><use transform="matrix(0.091358024691358,0,0,0.091358024691358,76.64938271604936,0)" xlink:href="#bF"/><use transform="matrix(0.091358024691358,0,0,0.091358024691358,94.92098765432095,0)" xlink:href="#bz"/></g><path d="M67-125c0 54 23 88 75 88 28 0 53-7 68-21v-34h-60v-39h108v91C232-14 192 4 140 4 58 4 20-42 15-125 8-236 126-280 215-234c19 10 29 26 37 47l-47 15c-11-23-29-39-63-39-53 1-75 33-75 86" id="bJ"/><path d="M110-194c64 0 96 36 96 99 0 64-35 99-97 99-61 0-95-36-95-99 0-62 34-99 96-99zm-1 164c35 0 45-28 45-65 0-40-10-65-43-65-34 0-45 26-45 65 0 36 10 65 43 65" id="bK"/><path d="M85 4C-2 5 27-109 22-190h50c7 57-23 150 33 157 60-5 35-97 40-157h50l1 190h-47c-2-12 1-28-3-38-12 25-28 42-61 42" id="bL"/><path d="M135-194c53 0 70 44 70 98 0 56-19 98-73 100-31 1-45-17-59-34 3 33 2 69 2 105H25l-1-265h48c2 10 0 23 3 31 11-24 29-35 60-35zM114-30c33 0 39-31 40-66 0-38-9-64-40-64-56 0-55 130 0 130" id="bM"/><g id="d"><use transform="matrix(0.07335390946502056,0,0,0.07335390946502056,0,0)" xlink:href="#bJ"/><use transform="matrix(0.07335390946502056,0,0,0.07335390946502056,20.539094650205758,0)" xlink:href="#bD"/><use transform="matrix(0.07335390946502056,0,0,0.07335390946502056,30.80864197530864,0)" xlink:href="#bK"/><use transform="matrix(0.07335390946502056,0,0,0.07335390946502056,46.87314814814814,0)" xlink:href="#bL"/><use transform="matrix(0.07335390946502056,0,0,0.07335390946502056,62.93765432098764,0)" xlink:href="#bM"/></g><path d="M182-130c37 4 62 22 62 59C244 23 116-4 24 0v-248c84 5 203-23 205 63 0 31-19 50-47 55zM76-148c40-3 101 13 101-30 0-44-60-28-101-31v61zm0 110c48-3 116 14 116-37 0-48-69-32-116-35v72" id="bN"/><use transform="matrix(0.07335390946502056,0,0,0.07335390946502056,0,0)" xlink:href="#bN" id="e"/><path fill="#333" d="M137-138c1-29-70-34-71-4 15 46 118 7 119 86 1 83-164 76-172 9l43-7c4 19 20 25 44 25 33 8 57-30 24-41C81-84 22-81 20-136c-2-80 154-74 161-7" id="bO"/><path fill="#333" d="M185-48c-13 30-37 53-82 52C43 2 14-33 14-96s30-98 90-98c62 0 83 45 84 108H66c0 31 8 55 39 56 18 0 30-7 34-22zm-45-69c5-46-57-63-70-21-2 6-4 13-4 21h74" id="bP"/><path fill="#333" d="M25 0v-261h50V0H25" id="bQ"/><path fill="#333" d="M135-150c-39-12-60 13-60 57V0H25l-1-190h47c2 13-1 29 3 40 6-28 27-53 61-41v41" id="bR"/><g id="g"><use transform="matrix(0.05,0,0,0.05,0,0)" xlink:href="#bO"/><use transform="matrix(0.05,0,0,0.05,10,0)" xlink:href="#bP"/><use transform="matrix(0.05,0,0,0.05,20,0)" xlink:href="#bQ"/><use transform="matrix(0.05,0,0,0.05,25,0)" xlink:href="#bQ"/><use transform="matrix(0.05,0,0,0.05,30,0)" xlink:href="#bP"/><use transform="matrix(0.05,0,0,0.05,40,0)" xlink:href="#bR"/></g><path fill="#333" d="M24-248c93 1 206-16 204 79-1 75-69 88-152 82V0H24v-248zm52 121c47 0 100 7 100-41 0-47-54-39-100-39v80" id="bS"/><path fill="#333" d="M195 0l-88-114-31 24V0H24v-248h52v113l112-113h60L142-143 257 0h-62" id="bT"/><g id="h"><use transform="matrix(0.05,0,0,0.05,0,0)" xlink:href="#bS"/><use transform="matrix(0.05,0,0,0.05,12,0)" xlink:href="#bT"/></g><path fill="#333" d="M-4 44V30h207v14H-4" id="bU"/><path fill="#333" d="M25-224v-37h50v37H25zM25 0v-190h50V0H25" id="bV"/><path fill="#333" d="M88-194c31-1 46 15 58 34l-1-101h50l1 261h-48c-2-10 0-23-3-31C134-8 116 4 84 4 32 4 16-41 15-95c0-56 19-97 73-99zm17 164c33 0 40-30 41-66 1-37-9-64-41-64s-38 30-39 65c0 43 13 65 39 65" id="bW"/><g id="i"><use transform="matrix(0.05,0,0,0.05,0,0)" xlink:href="#bO"/><use transform="matrix(0.05,0,0,0.05,10,0)" xlink:href="#bP"/><use transform="matrix(0.05,0,0,0.05,20,0)" xlink:href="#bQ"/><use transform="matrix(0.05,0,0,0.05,25,0)" xlink:href="#bQ"/><use transform="matrix(0.05,0,0,0.05,30,0)" xlink:href="#bU"/><use transform="matrix(0.05,0,0,0.05,40,0)" xlink:href="#bV"/><use transform="matrix(0.05,0,0,0.05,45,0)" xlink:href="#bW"/><path fill="#333" d="M-.9.97h57.75v1.9H-.9z"/></g><path fill="#333" d="M135-143c-3-34-86-38-87 0 15 53 115 12 119 90S17 21 10-45l28-5c4 36 97 45 98 0-10-56-113-15-118-90-4-57 82-63 122-42 12 7 21 19 24 35" id="bX"/><path fill="#333" d="M100-194c63 0 86 42 84 106H49c0 40 14 67 53 68 26 1 43-12 49-29l28 8c-11 28-37 45-77 45C44 4 14-33 15-96c1-61 26-98 85-98zm52 81c6-60-76-77-97-28-3 7-6 17-6 28h103" id="bY"/><path fill="#333" d="M24 0v-261h32V0H24" id="bZ"/><path fill="#333" d="M-5 72V49h209v23H-5" id="ca"/><path fill="#333" d="M117-194c89-4 53 116 60 194h-32v-121c0-31-8-49-39-48C34-167 62-67 57 0H25l-1-190h30c1 10-1 24 2 32 11-22 29-35 61-36" id="cb"/><path fill="#333" d="M141-36C126-15 110 5 73 4 37 3 15-17 15-53c-1-64 63-63 125-63 3-35-9-54-41-54-24 1-41 7-42 31l-33-3c5-37 33-52 76-52 45 0 72 20 72 64v82c-1 20 7 32 28 27v20c-31 9-61-2-59-35zM48-53c0 20 12 33 32 33 41-3 63-29 60-74-43 2-92-5-92 41" id="cc"/><path fill="#333" d="M210-169c-67 3-38 105-44 169h-31v-121c0-29-5-50-35-48C34-165 62-65 56 0H25l-1-190h30c1 10-1 24 2 32 10-44 99-50 107 0 11-21 27-35 58-36 85-2 47 119 55 194h-31v-121c0-29-5-49-35-48" id="cd"/><g id="j"><use transform="matrix(0.05,0,0,0.05,0,0)" xlink:href="#bX"/><use transform="matrix(0.05,0,0,0.05,9,0)" xlink:href="#bY"/><use transform="matrix(0.05,0,0,0.05,19,0)" xlink:href="#bZ"/><use transform="matrix(0.05,0,0,0.05,22.95,0)" xlink:href="#bZ"/><use transform="matrix(0.05,0,0,0.05,26.899999999999995,0)" xlink:href="#ca"/><use transform="matrix(0.05,0,0,0.05,36.9,0)" xlink:href="#cb"/><use transform="matrix(0.05,0,0,0.05,46.9,0)" xlink:href="#cc"/><use transform="matrix(0.05,0,0,0.05,56.900000000000006,0)" xlink:href="#cd"/><use transform="matrix(0.05,0,0,0.05,71.85,0)" xlink:href="#bY"/></g><path fill="#333" d="M190-63c-7 42-38 67-86 67-59 0-84-38-90-98-12-110 154-137 174-36l-49 2c-2-19-15-32-35-32-30 0-35 28-38 64-6 74 65 87 74 30" id="ce"/><path fill="#333" d="M85 4C-2 5 27-109 22-190h50c7 57-23 150 33 157 60-5 35-97 40-157h50l1 190h-47c-2-12 1-28-3-38-12 25-28 42-61 42" id="cf"/><path fill="#333" d="M115-3C79 11 28 4 28-45v-112H4v-33h27l15-45h31v45h36v33H77v99c-1 23 16 31 38 25v30" id="cg"/><path fill="#333" d="M110-194c64 0 96 36 96 99 0 64-35 99-97 99-61 0-95-36-95-99 0-62 34-99 96-99zm-1 164c35 0 45-28 45-65 0-40-10-65-43-65-34 0-45 26-45 65 0 36 10 65 43 65" id="ch"/><path fill="#333" d="M220-157c-53 9-28 100-34 157h-49v-107c1-27-5-49-29-50C55-147 81-57 75 0H25l-1-190h47c2 12-1 28 3 38 10-53 101-56 108 0 13-22 24-43 59-42 82 1 51 116 57 194h-49v-107c-1-25-5-48-29-50" id="ci"/><g id="k"><use transform="matrix(0.05,0,0,0.05,0,0)" xlink:href="#ce"/><use transform="matrix(0.05,0,0,0.05,10,0)" xlink:href="#cf"/><use transform="matrix(0.05,0,0,0.05,20.950000000000003,0)" xlink:href="#bO"/><use transform="matrix(0.05,0,0,0.05,30.950000000000003,0)" xlink:href="#cg"/><use transform="matrix(0.05,0,0,0.05,36.900000000000006,0)" xlink:href="#ch"/><use transform="matrix(0.05,0,0,0.05,47.85000000000001,0)" xlink:href="#ci"/><use transform="matrix(0.05,0,0,0.05,63.85,0)" xlink:href="#bP"/><use transform="matrix(0.05,0,0,0.05,73.85000000000001,0)" xlink:href="#bR"/></g><g id="l"><use transform="matrix(0.05,0,0,0.05,0,0)" xlink:href="#ce"/><use transform="matrix(0.05,0,0,0.05,10,0)" xlink:href="#cf"/><use transform="matrix(0.05,0,0,0.05,20.950000000000003,0)" xlink:href="#bO"/><use transform="matrix(0.05,0,0,0.05,30.950000000000003,0)" xlink:href="#cg"/><use transform="matrix(0.05,0,0,0.05,36.900000000000006,0)" xlink:href="#bU"/><use transform="matrix(0.05,0,0,0.05,46.900000000000006,0)" xlink:href="#bV"/><use transform="matrix(0.05,0,0,0.05,51.900000000000006,0)" xlink:href="#bW"/><path fill="#333" d="M-.9.97h64.65v1.9H-.9z"/></g><path fill="#333" d="M96-169c-40 0-48 33-48 73s9 75 48 75c24 0 41-14 43-38l32 2c-6 37-31 61-74 61-59 0-76-41-82-99-10-93 101-131 147-64 4 7 5 14 7 22l-32 3c-4-21-16-35-41-35" id="cj"/><path fill="#333" d="M84 4C-5 8 30-112 23-190h32v120c0 31 7 50 39 49 72-2 45-101 50-169h31l1 190h-30c-1-10 1-25-2-33-11 22-28 36-60 37" id="ck"/><path fill="#333" d="M59-47c-2 24 18 29 38 22v24C64 9 27 4 27-40v-127H5v-23h24l9-43h21v43h35v23H59v120" id="cl"/><g id="m"><use transform="matrix(0.05,0,0,0.05,0,0)" xlink:href="#cj"/><use transform="matrix(0.05,0,0,0.05,9,0)" xlink:href="#ck"/><use transform="matrix(0.05,0,0,0.05,19,0)" xlink:href="#bX"/><use transform="matrix(0.05,0,0,0.05,28,0)" xlink:href="#cl"/><use transform="matrix(0.05,0,0,0.05,33,0)" xlink:href="#ca"/><use transform="matrix(0.05,0,0,0.05,43,0)" xlink:href="#cb"/><use transform="matrix(0.05,0,0,0.05,53,0)" xlink:href="#cc"/><use transform="matrix(0.05,0,0,0.05,63,0)" xlink:href="#cd"/><use transform="matrix(0.05,0,0,0.05,77.95,0)" xlink:href="#bY"/></g><path fill="#333" d="M114-163C36-179 61-72 57 0H25l-1-190h30c1 12-1 29 2 39 6-27 23-49 58-41v29" id="cm"/><path fill="#333" d="M85-194c31 0 48 13 60 33l-1-100h32l1 261h-30c-2-10 0-23-3-31C134-8 116 4 85 4 32 4 16-35 15-94c0-66 23-100 70-100zm9 24c-40 0-46 34-46 75 0 40 6 74 45 74 42 0 51-32 51-76 0-42-9-74-50-73" id="cn"/><g id="n"><use transform="matrix(0.05,0,0,0.05,0,0)" xlink:href="#bX"/><use transform="matrix(0.05,0,0,0.05,9,0)" xlink:href="#cl"/><use transform="matrix(0.05,0,0,0.05,14,0)" xlink:href="#cm"/><use transform="matrix(0.05,0,0,0.05,19.95,0)" xlink:href="#ca"/><use transform="matrix(0.05,0,0,0.05,29.950000000000003,0)" xlink:href="#cc"/><use transform="matrix(0.05,0,0,0.05,39.95,0)" xlink:href="#cn"/><use transform="matrix(0.05,0,0,0.05,49.95,0)" xlink:href="#cn"/><use transform="matrix(0.05,0,0,0.05,59.95,0)" xlink:href="#cm"/><use transform="matrix(0.05,0,0,0.05,65.9,0)" xlink:href="#bY"/><use transform="matrix(0.05,0,0,0.05,75.9,0)" xlink:href="#bX"/><use transform="matrix(0.05,0,0,0.05,84.9,0)" xlink:href="#bX"/></g><g id="o"><use transform="matrix(0.05,0,0,0.05,0,0)" xlink:href="#bV"/><use transform="matrix(0.05,0,0,0.05,5,0)" xlink:href="#cg"/><use transform="matrix(0.05,0,0,0.05,10.95,0)" xlink:href="#bP"/><use transform="matrix(0.05,0,0,0.05,20.95,0)" xlink:href="#ci"/></g><g id="p"><use transform="matrix(0.05,0,0,0.05,0,0)" xlink:href="#bV"/><use transform="matrix(0.05,0,0,0.05,5,0)" xlink:href="#cg"/><use transform="matrix(0.05,0,0,0.05,10.95,0)" xlink:href="#bP"/><use transform="matrix(0.05,0,0,0.05,20.95,0)" xlink:href="#ci"/><use transform="matrix(0.05,0,0,0.05,36.95,0)" xlink:href="#bU"/><use transform="matrix(0.05,0,0,0.05,46.95,0)" xlink:href="#bV"/><use transform="matrix(0.05,0,0,0.05,51.95,0)" xlink:href="#bW"/><path fill="#333" d="M-.9.97h64.7v1.9H-.9z"/></g><path d="M195 0l-88-114-31 24V0H24v-248h52v113l112-113h60L142-143 257 0h-62" id="co"/><path d="M24-248c93 1 206-16 204 79-1 75-69 88-152 82V0H24v-248zm52 121c47 0 100 7 100-41 0-47-54-39-100-39v80" id="cp"/><g id="q"><use transform="matrix(0.05,0,0,0.05,0,0)" xlink:href="#bC"/><use transform="matrix(0.05,0,0,0.05,10.950000000000001,0)" xlink:href="#co"/><use transform="matrix(0.05,0,0,0.05,23.900000000000002,0)" xlink:href="#cp"/><use transform="matrix(0.05,0,0,0.05,35.900000000000006,0)" xlink:href="#co"/></g><g id="r"><use transform="matrix(0.05,0,0,0.05,0,0)" xlink:href="#bO"/><use transform="matrix(0.05,0,0,0.05,10,0)" xlink:href="#bP"/><use transform="matrix(0.05,0,0,0.05,20,0)" xlink:href="#bQ"/><use transform="matrix(0.05,0,0,0.05,25,0)" xlink:href="#bQ"/><use transform="matrix(0.05,0,0,0.05,30,0)" xlink:href="#bU"/><use transform="matrix(0.05,0,0,0.05,40,0)" xlink:href="#bV"/><use transform="matrix(0.05,0,0,0.05,45,0)" xlink:href="#bW"/><path fill="#333" d="M-.9.97h57.75v1.9H-.9z"/></g><path fill="#333" d="M63-220v92h138v28H63V0H30v-248h175v28H63" id="cq"/><path fill="#333" d="M194 0L95-120 63-95V0H30v-248h33v124l119-124h40L117-140 236 0h-42" id="cr"/><g id="s"><use transform="matrix(0.05,0,0,0.05,0,0)" xlink:href="#cq"/><use transform="matrix(0.05,0,0,0.05,10.950000000000001,0)" xlink:href="#cr"/></g><path fill="#333" d="M100-194c62-1 85 37 85 99 1 63-27 99-86 99S16-35 15-95c0-66 28-99 85-99zM99-20c44 1 53-31 53-75 0-43-8-75-51-75s-53 32-53 75 10 74 51 75" id="cs"/><path fill="#333" d="M24-231v-30h32v30H24zM24 0v-190h32V0H24" id="ct"/><g id="t"><use transform="matrix(0.05,0,0,0.05,0,0)" xlink:href="#bX"/><use transform="matrix(0.05,0,0,0.05,9,0)" xlink:href="#cl"/><use transform="matrix(0.05,0,0,0.05,14,0)" xlink:href="#cs"/><use transform="matrix(0.05,0,0,0.05,24,0)" xlink:href="#cm"/><use transform="matrix(0.05,0,0,0.05,29.950000000000003,0)" xlink:href="#bY"/><use transform="matrix(0.05,0,0,0.05,39.95,0)" xlink:href="#ca"/><use transform="matrix(0.05,0,0,0.05,49.95,0)" xlink:href="#ct"/><use transform="matrix(0.05,0,0,0.05,53.900000000000006,0)" xlink:href="#cn"/></g><path d="M24-231v-30h32v30H24zM24 0v-190h32V0H24" id="cu"/><path d="M59-47c-2 24 18 29 38 22v24C64 9 27 4 27-40v-127H5v-23h24l9-43h21v43h35v23H59v120" id="cv"/><path d="M100-194c63 0 86 42 84 106H49c0 40 14 67 53 68 26 1 43-12 49-29l28 8c-11 28-37 45-77 45C44 4 14-33 15-96c1-61 26-98 85-98zm52 81c6-60-76-77-97-28-3 7-6 17-6 28h103" id="cw"/><path d="M210-169c-67 3-38 105-44 169h-31v-121c0-29-5-50-35-48C34-165 62-65 56 0H25l-1-190h30c1 10-1 24 2 32 10-44 99-50 107 0 11-21 27-35 58-36 85-2 47 119 55 194h-31v-121c0-29-5-49-35-48" id="cx"/><path d="M-5 72V49h209v23H-5" id="cy"/><path d="M117-194c89-4 53 116 60 194h-32v-121c0-31-8-49-39-48C34-167 62-67 57 0H25l-1-190h30c1 10-1 24 2 32 11-22 29-35 61-36" id="cz"/><path d="M141-36C126-15 110 5 73 4 37 3 15-17 15-53c-1-64 63-63 125-63 3-35-9-54-41-54-24 1-41 7-42 31l-33-3c5-37 33-52 76-52 45 0 72 20 72 64v82c-1 20 7 32 28 27v20c-31 9-61-2-59-35zM48-53c0 20 12 33 32 33 41-3 63-29 60-74-43 2-92-5-92 41" id="cA"/><g id="u"><use transform="matrix(0.05,0,0,0.05,0,0)" xlink:href="#cu"/><use transform="matrix(0.05,0,0,0.05,3.95,0)" xlink:href="#cv"/><use transform="matrix(0.05,0,0,0.05,8.95,0)" xlink:href="#cw"/><use transform="matrix(0.05,0,0,0.05,18.95,0)" xlink:href="#cx"/><use transform="matrix(0.05,0,0,0.05,33.9,0)" xlink:href="#cy"/><use transform="matrix(0.05,0,0,0.05,43.9,0)" xlink:href="#cz"/><use transform="matrix(0.05,0,0,0.05,53.900000000000006,0)" xlink:href="#cA"/><use transform="matrix(0.05,0,0,0.05,63.900000000000006,0)" xlink:href="#cx"/><use transform="matrix(0.05,0,0,0.05,78.85,0)" xlink:href="#cw"/></g><path fill="#333" d="M115-194c55 1 70 41 70 98S169 2 115 4C84 4 66-9 55-30l1 105H24l-1-265h31l2 30c10-21 28-34 59-34zm-8 174c40 0 45-34 45-75s-6-73-45-74c-42 0-51 32-51 76 0 43 10 73 51 73" id="cB"/><g id="v"><use transform="matrix(0.05,0,0,0.05,0,0)" xlink:href="#cB"/><use transform="matrix(0.05,0,0,0.05,10,0)" xlink:href="#cm"/><use transform="matrix(0.05,0,0,0.05,15.949999999999998,0)" xlink:href="#ct"/><use transform="matrix(0.05,0,0,0.05,19.9,0)" xlink:href="#cj"/><use transform="matrix(0.05,0,0,0.05,28.899999999999995,0)" xlink:href="#bY"/></g><g id="w"><use transform="matrix(0.05,0,0,0.05,0,0)" xlink:href="#ch"/><use transform="matrix(0.05,0,0,0.05,10.950000000000001,0)" xlink:href="#bR"/><use transform="matrix(0.05,0,0,0.05,17.950000000000003,0)" xlink:href="#bW"/><use transform="matrix(0.05,0,0,0.05,28.900000000000006,0)" xlink:href="#bP"/><use transform="matrix(0.05,0,0,0.05,38.900000000000006,0)" xlink:href="#bR"/><use transform="matrix(0.05,0,0,0.05,45.900000000000006,0)" xlink:href="#bO"/></g><g id="x"><use transform="matrix(0.05,0,0,0.05,0,0)" xlink:href="#ch"/><use transform="matrix(0.05,0,0,0.05,10.950000000000001,0)" xlink:href="#bR"/><use transform="matrix(0.05,0,0,0.05,17.950000000000003,0)" xlink:href="#bW"/><use transform="matrix(0.05,0,0,0.05,28.900000000000006,0)" xlink:href="#bP"/><use transform="matrix(0.05,0,0,0.05,38.900000000000006,0)" xlink:href="#bR"/><use transform="matrix(0.05,0,0,0.05,45.900000000000006,0)" xlink:href="#bU"/><use transform="matrix(0.05,0,0,0.05,55.900000000000006,0)" xlink:href="#bV"/><use transform="matrix(0.05,0,0,0.05,60.900000000000006,0)" xlink:href="#bW"/><path fill="#333" d="M-.9.97h73.65v1.9H-.9z"/></g><g id="y"><use transform="matrix(0.05,0,0,0.05,0,0)" xlink:href="#cp"/><use transform="matrix(0.05,0,0,0.05,12,0)" xlink:href="#co"/><use transform="matrix(0.05,0,0,0.05,24.950000000000003,0)" xlink:href="#bC"/><use transform="matrix(0.05,0,0,0.05,35.900000000000006,0)" xlink:href="#co"/></g><path d="M-4 44V30h207v14H-4" id="cC"/><path d="M88-194c31-1 46 15 58 34l-1-101h50l1 261h-48c-2-10 0-23-3-31C134-8 116 4 84 4 32 4 16-41 15-95c0-56 19-97 73-99zm17 164c33 0 40-30 41-66 1-37-9-64-41-64s-38 30-39 65c0 43 13 65 39 65" id="cD"/><g id="z"><use transform="matrix(0.05,0,0,0.05,0,0)" xlink:href="#bx"/><use transform="matrix(0.05,0,0,0.05,5,0)" xlink:href="#bz"/><use transform="matrix(0.05,0,0,0.05,10.95,0)" xlink:href="#bF"/><use transform="matrix(0.05,0,0,0.05,20.95,0)" xlink:href="#bE"/><use transform="matrix(0.05,0,0,0.05,36.95,0)" xlink:href="#cC"/><use transform="matrix(0.05,0,0,0.05,46.95,0)" xlink:href="#bx"/><use transform="matrix(0.05,0,0,0.05,51.95,0)" xlink:href="#cD"/><path d="M-.9.97h64.7v1.9H-.9z"/></g><path fill="#333" d="M76-208v77h127v40H76V0H24v-248h183v40H76" id="cE"/><g id="A"><use transform="matrix(0.05,0,0,0.05,0,0)" xlink:href="#bS"/><use transform="matrix(0.05,0,0,0.05,12,0)" xlink:href="#bT"/><use transform="matrix(0.05,0,0,0.05,24.950000000000003,0)" xlink:href="#cE"/><use transform="matrix(0.05,0,0,0.05,35.900000000000006,0)" xlink:href="#bT"/></g><path d="M190-63c-7 42-38 67-86 67-59 0-84-38-90-98-12-110 154-137 174-36l-49 2c-2-19-15-32-35-32-30 0-35 28-38 64-6 74 65 87 74 30" id="cF"/><g id="B"><use transform="matrix(0.05,0,0,0.05,0,0)" xlink:href="#cF"/><use transform="matrix(0.05,0,0,0.05,10,0)" xlink:href="#bL"/><use transform="matrix(0.05,0,0,0.05,20.950000000000003,0)" xlink:href="#bG"/><use transform="matrix(0.05,0,0,0.05,30.950000000000003,0)" xlink:href="#bz"/><use transform="matrix(0.05,0,0,0.05,36.900000000000006,0)" xlink:href="#cC"/><use transform="matrix(0.05,0,0,0.05,46.900000000000006,0)" xlink:href="#bx"/><use transform="matrix(0.05,0,0,0.05,51.900000000000006,0)" xlink:href="#cD"/><path d="M-.9.97h64.65v1.9H-.9z"/></g><path fill="#333" d="M145-31C134-9 116 4 85 4 32 4 16-35 15-94c0-59 17-99 70-100 32-1 48 14 60 33 0-11-1-24 2-32h30l-1 268h-32zM93-21c41 0 51-33 51-76s-8-73-50-73c-40 0-46 35-46 75s5 74 45 74" id="cG"/><path fill="#333" d="M179-190L93 31C79 59 56 82 12 73V49c39 6 53-20 64-50L1-190h34L92-34l54-156h33" id="cH"/><g id="C"><use transform="matrix(0.05,0,0,0.05,0,0)" xlink:href="#cG"/><use transform="matrix(0.05,0,0,0.05,10,0)" xlink:href="#ck"/><use transform="matrix(0.05,0,0,0.05,20,0)" xlink:href="#cc"/><use transform="matrix(0.05,0,0,0.05,30,0)" xlink:href="#cb"/><use transform="matrix(0.05,0,0,0.05,40,0)" xlink:href="#cl"/><use transform="matrix(0.05,0,0,0.05,45,0)" xlink:href="#ct"/><use transform="matrix(0.05,0,0,0.05,48.95,0)" xlink:href="#cl"/><use transform="matrix(0.05,0,0,0.05,53.95,0)" xlink:href="#cH"/></g><path fill="#333" d="M135-194c53 0 70 44 70 98 0 56-19 98-73 100-31 1-45-17-59-34 3 33 2 69 2 105H25l-1-265h48c2 10 0 23 3 31 11-24 29-35 60-35zM114-30c33 0 39-31 40-66 0-38-9-64-40-64-56 0-55 130 0 130" id="cI"/><path fill="#333" d="M133-34C117-15 103 5 69 4 32 3 11-16 11-54c-1-60 55-63 116-61 1-26-3-47-28-47-18 1-26 9-28 27l-52-2c7-38 36-58 82-57s74 22 75 68l1 82c-1 14 12 18 25 15v27c-30 8-71 5-69-32zm-48 3c29 0 43-24 42-57-32 0-66-3-65 30 0 17 8 27 23 27" id="cJ"/><path fill="#333" d="M123 10C108 53 80 86 19 72V37c35 8 53-11 59-39L3-190h52l48 148c12-52 28-100 44-148h51" id="cK"/><path fill="#333" d="M135-194c87-1 58 113 63 194h-50c-7-57 23-157-34-157-59 0-34 97-39 157H25l-1-190h47c2 12-1 28 3 38 12-26 28-41 61-42" id="cL"/><g id="D"><use transform="matrix(0.05,0,0,0.05,0,0)" xlink:href="#ce"/><use transform="matrix(0.05,0,0,0.05,10,0)" xlink:href="#cf"/><use transform="matrix(0.05,0,0,0.05,20.950000000000003,0)" xlink:href="#bO"/><use transform="matrix(0.05,0,0,0.05,30.950000000000003,0)" xlink:href="#cg"/><use transform="matrix(0.05,0,0,0.05,36.900000000000006,0)" xlink:href="#ch"/><use transform="matrix(0.05,0,0,0.05,47.85000000000001,0)" xlink:href="#ci"/><use transform="matrix(0.05,0,0,0.05,63.85,0)" xlink:href="#bP"/><use transform="matrix(0.05,0,0,0.05,73.85000000000001,0)" xlink:href="#bR"/><use transform="matrix(0.05,0,0,0.05,80.85000000000001,0)" xlink:href="#bU"/><use transform="matrix(0.05,0,0,0.05,90.85000000000001,0)" xlink:href="#cI"/><use transform="matrix(0.05,0,0,0.05,101.80000000000001,0)" xlink:href="#cJ"/><use transform="matrix(0.05,0,0,0.05,111.80000000000001,0)" xlink:href="#cK"/><use transform="matrix(0.05,0,0,0.05,121.80000000000001,0)" xlink:href="#ci"/><use transform="matrix(0.05,0,0,0.05,137.8,0)" xlink:href="#bP"/><use transform="matrix(0.05,0,0,0.05,147.8,0)" xlink:href="#cL"/><use transform="matrix(0.05,0,0,0.05,158.75,0)" xlink:href="#cg"/></g><g id="E"><use transform="matrix(0.05,0,0,0.05,0,0)" xlink:href="#cI"/><use transform="matrix(0.05,0,0,0.05,10.950000000000001,0)" xlink:href="#cK"/><use transform="matrix(0.05,0,0,0.05,20.950000000000003,0)" xlink:href="#ci"/><use transform="matrix(0.05,0,0,0.05,36.95,0)" xlink:href="#cg"/><use transform="matrix(0.05,0,0,0.05,42.900000000000006,0)" xlink:href="#bU"/><use transform="matrix(0.05,0,0,0.05,52.900000000000006,0)" xlink:href="#bV"/><use transform="matrix(0.05,0,0,0.05,57.900000000000006,0)" xlink:href="#bW"/><path fill="#333" d="M-.9.97h70.65v1.9H-.9z"/></g><path d="M63-220v92h138v28H63V0H30v-248h175v28H63" id="cM"/><path d="M194 0L95-120 63-95V0H30v-248h33v124l119-124h40L117-140 236 0h-42" id="cN"/><g id="F"><use transform="matrix(0.05,0,0,0.05,0,0)" xlink:href="#cM"/><use transform="matrix(0.05,0,0,0.05,10.950000000000001,0)" xlink:href="#cN"/></g><path d="M96-169c-40 0-48 33-48 73s9 75 48 75c24 0 41-14 43-38l32 2c-6 37-31 61-74 61-59 0-76-41-82-99-10-93 101-131 147-64 4 7 5 14 7 22l-32 3c-4-21-16-35-41-35" id="cO"/><path d="M84 4C-5 8 30-112 23-190h32v120c0 31 7 50 39 49 72-2 45-101 50-169h31l1 190h-30c-1-10 1-25-2-33-11 22-28 36-60 37" id="cP"/><path d="M135-143c-3-34-86-38-87 0 15 53 115 12 119 90S17 21 10-45l28-5c4 36 97 45 98 0-10-56-113-15-118-90-4-57 82-63 122-42 12 7 21 19 24 35" id="cQ"/><path d="M85-194c31 0 48 13 60 33l-1-100h32l1 261h-30c-2-10 0-23-3-31C134-8 116 4 85 4 32 4 16-35 15-94c0-66 23-100 70-100zm9 24c-40 0-46 34-46 75 0 40 6 74 45 74 42 0 51-32 51-76 0-42-9-74-50-73" id="cR"/><g id="G"><use transform="matrix(0.05,0,0,0.05,0,0)" xlink:href="#cO"/><use transform="matrix(0.05,0,0,0.05,9,0)" xlink:href="#cP"/><use transform="matrix(0.05,0,0,0.05,19,0)" xlink:href="#cQ"/><use transform="matrix(0.05,0,0,0.05,28,0)" xlink:href="#cv"/><use transform="matrix(0.05,0,0,0.05,33,0)" xlink:href="#cy"/><use transform="matrix(0.05,0,0,0.05,43,0)" xlink:href="#cu"/><use transform="matrix(0.05,0,0,0.05,46.95,0)" xlink:href="#cR"/></g><path fill="#333" d="M106-169C34-169 62-67 57 0H25v-261h32l-1 103c12-21 28-36 61-36 89 0 53 116 60 194h-32v-121c2-32-8-49-39-48" id="cS"/><g id="H"><use transform="matrix(0.05,0,0,0.05,0,0)" xlink:href="#cd"/><use transform="matrix(0.05,0,0,0.05,14.950000000000001,0)" xlink:href="#bY"/><use transform="matrix(0.05,0,0,0.05,24.950000000000003,0)" xlink:href="#cl"/><use transform="matrix(0.05,0,0,0.05,29.950000000000003,0)" xlink:href="#cS"/><use transform="matrix(0.05,0,0,0.05,39.95,0)" xlink:href="#cs"/><use transform="matrix(0.05,0,0,0.05,49.95,0)" xlink:href="#cn"/><use transform="matrix(0.05,0,0,0.05,59.95,0)" xlink:href="#bX"/></g><g id="I"><use transform="matrix(0.05,0,0,0.05,0,0)" xlink:href="#cc"/><use transform="matrix(0.05,0,0,0.05,10,0)" xlink:href="#cj"/><use transform="matrix(0.05,0,0,0.05,19,0)" xlink:href="#cj"/><use transform="matrix(0.05,0,0,0.05,28,0)" xlink:href="#cs"/><use transform="matrix(0.05,0,0,0.05,38,0)" xlink:href="#ck"/><use transform="matrix(0.05,0,0,0.05,48,0)" xlink:href="#cb"/><use transform="matrix(0.05,0,0,0.05,58,0)" xlink:href="#cl"/><use transform="matrix(0.05,0,0,0.05,63,0)" xlink:href="#ca"/><use transform="matrix(0.05,0,0,0.05,73,0)" xlink:href="#cb"/><use transform="matrix(0.05,0,0,0.05,83,0)" xlink:href="#cs"/></g><path d="M141 0L90-78 38 0H4l68-98-65-92h35l48 74 47-74h35l-64 92 68 98h-35" id="cT"/><path d="M115-194c55 1 70 41 70 98S169 2 115 4C84 4 66-9 55-30l1 105H24l-1-265h31l2 30c10-21 28-34 59-34zm-8 174c40 0 45-34 45-75s-6-73-45-74c-42 0-51 32-51 76 0 43 10 73 51 73" id="cU"/><path d="M114-163C36-179 61-72 57 0H25l-1-190h30c1 12-1 29 2 39 6-27 23-49 58-41v29" id="cV"/><path d="M100-194c62-1 85 37 85 99 1 63-27 99-86 99S16-35 15-95c0-66 28-99 85-99zM99-20c44 1 53-31 53-75 0-43-8-75-51-75s-53 32-53 75 10 74 51 75" id="cW"/><g id="J"><use transform="matrix(0.05,0,0,0.05,0,0)" xlink:href="#cw"/><use transform="matrix(0.05,0,0,0.05,10,0)" xlink:href="#cT"/><use transform="matrix(0.05,0,0,0.05,19,0)" xlink:href="#cU"/><use transform="matrix(0.05,0,0,0.05,29,0)" xlink:href="#cu"/><use transform="matrix(0.05,0,0,0.05,32.95,0)" xlink:href="#cV"/><use transform="matrix(0.05,0,0,0.05,38.900000000000006,0)" xlink:href="#cA"/><use transform="matrix(0.05,0,0,0.05,48.900000000000006,0)" xlink:href="#cv"/><use transform="matrix(0.05,0,0,0.05,53.900000000000006,0)" xlink:href="#cu"/><use transform="matrix(0.05,0,0,0.05,57.85,0)" xlink:href="#cW"/><use transform="matrix(0.05,0,0,0.05,67.85000000000001,0)" xlink:href="#cz"/></g><g id="K"><use transform="matrix(0.05,0,0,0.05,0,0)" xlink:href="#cO"/><use transform="matrix(0.05,0,0,0.05,9,0)" xlink:href="#cW"/><use transform="matrix(0.05,0,0,0.05,19,0)" xlink:href="#cR"/><use transform="matrix(0.05,0,0,0.05,29,0)" xlink:href="#cw"/></g><path fill="#333" d="M185-189c-5-48-123-54-124 2 14 75 158 14 163 119 3 78-121 87-175 55-17-10-28-26-33-46l33-7c5 56 141 63 141-1 0-78-155-14-162-118-5-82 145-84 179-34 5 7 8 16 11 25" id="cX"/><g id="L"><use transform="matrix(0.05,0,0,0.05,0,0)" xlink:href="#cX"/><use transform="matrix(0.05,0,0,0.05,12,0)" xlink:href="#ck"/><use transform="matrix(0.05,0,0,0.05,22,0)" xlink:href="#cB"/><use transform="matrix(0.05,0,0,0.05,32,0)" xlink:href="#cB"/><use transform="matrix(0.05,0,0,0.05,42,0)" xlink:href="#bZ"/><use transform="matrix(0.05,0,0,0.05,45.95,0)" xlink:href="#ct"/><use transform="matrix(0.05,0,0,0.05,49.900000000000006,0)" xlink:href="#bY"/><use transform="matrix(0.05,0,0,0.05,59.900000000000006,0)" xlink:href="#bX"/></g><g id="M"><use transform="matrix(0.05,0,0,0.05,0,0)" xlink:href="#cX"/><use transform="matrix(0.05,0,0,0.05,12,0)" xlink:href="#ck"/><use transform="matrix(0.05,0,0,0.05,22,0)" xlink:href="#cB"/><use transform="matrix(0.05,0,0,0.05,32,0)" xlink:href="#cB"/><use transform="matrix(0.05,0,0,0.05,42,0)" xlink:href="#bZ"/><use transform="matrix(0.05,0,0,0.05,45.95,0)" xlink:href="#ct"/><use transform="matrix(0.05,0,0,0.05,49.900000000000006,0)" xlink:href="#bY"/><use transform="matrix(0.05,0,0,0.05,59.900000000000006,0)" xlink:href="#cn"/></g><path fill="#333" d="M115-194c53 0 69 39 70 98 0 66-23 100-70 100C84 3 66-7 56-30L54 0H23l1-261h32v101c10-23 28-34 59-34zm-8 174c40 0 45-34 45-75 0-40-5-75-45-74-42 0-51 32-51 76 0 43 10 73 51 73" id="cY"/><g id="N"><use transform="matrix(0.05,0,0,0.05,0,0)" xlink:href="#cY"/><use transform="matrix(0.05,0,0,0.05,10,0)" xlink:href="#cH"/></g><path fill="#333" d="M160-131c35 5 61 23 61 61C221 17 115-2 30 0v-248c76 3 177-17 177 60 0 33-19 50-47 57zm-97-11c50-1 110 9 110-42 0-47-63-36-110-37v79zm0 115c55-2 124 14 124-45 0-56-70-42-124-44v89" id="cZ"/><g id="O"><use transform="matrix(0.05,0,0,0.05,0,0)" xlink:href="#cZ"/><use transform="matrix(0.05,0,0,0.05,12,0)" xlink:href="#ck"/><use transform="matrix(0.05,0,0,0.05,22,0)" xlink:href="#cH"/><use transform="matrix(0.05,0,0,0.05,31,0)" xlink:href="#bX"/></g><path fill="#333" d="M101-234c-31-9-42 10-38 44h38v23H63V0H32v-167H5v-23h27c-7-52 17-82 69-68v24" id="da"/><g id="P"><use transform="matrix(0.05,0,0,0.05,0,0)" xlink:href="#da"/><use transform="matrix(0.05,0,0,0.05,5,0)" xlink:href="#cm"/><use transform="matrix(0.05,0,0,0.05,10.95,0)" xlink:href="#cs"/><use transform="matrix(0.05,0,0,0.05,20.95,0)" xlink:href="#cd"/></g><g id="Q"><use transform="matrix(0.05,0,0,0.05,0,0)" xlink:href="#cX"/><use transform="matrix(0.05,0,0,0.05,12,0)" xlink:href="#bY"/><use transform="matrix(0.05,0,0,0.05,22,0)" xlink:href="#bZ"/><use transform="matrix(0.05,0,0,0.05,25.950000000000003,0)" xlink:href="#bZ"/><use transform="matrix(0.05,0,0,0.05,29.899999999999995,0)" xlink:href="#bX"/></g><g id="R"><use transform="matrix(0.05,0,0,0.05,0,0)" xlink:href="#cl"/><use transform="matrix(0.05,0,0,0.05,5,0)" xlink:href="#cs"/></g><path fill="#333" d="M30-248c87 1 191-15 191 75 0 78-77 80-158 76V0H30v-248zm33 125c57 0 124 11 124-50 0-59-68-47-124-48v98" id="db"/><g id="S"><use transform="matrix(0.05,0,0,0.05,0,0)" xlink:href="#db"/><use transform="matrix(0.05,0,0,0.05,12,0)" xlink:href="#bZ"/><use transform="matrix(0.05,0,0,0.05,15.949999999999998,0)" xlink:href="#cc"/><use transform="matrix(0.05,0,0,0.05,25.950000000000003,0)" xlink:href="#cj"/><use transform="matrix(0.05,0,0,0.05,34.95,0)" xlink:href="#bY"/><use transform="matrix(0.05,0,0,0.05,44.95,0)" xlink:href="#bX"/></g><g id="T"><use transform="matrix(0.05,0,0,0.05,0,0)" xlink:href="#db"/><use transform="matrix(0.05,0,0,0.05,12,0)" xlink:href="#bZ"/><use transform="matrix(0.05,0,0,0.05,15.949999999999998,0)" xlink:href="#cc"/><use transform="matrix(0.05,0,0,0.05,25.950000000000003,0)" xlink:href="#cj"/><use transform="matrix(0.05,0,0,0.05,34.95,0)" xlink:href="#bY"/><use transform="matrix(0.05,0,0,0.05,44.95,0)" xlink:href="#cn"/></g><g id="V"><use transform="matrix(0.05,0,0,0.05,0,0)" xlink:href="#cX"/><use transform="matrix(0.05,0,0,0.05,12,0)" xlink:href="#ck"/><use transform="matrix(0.05,0,0,0.05,22,0)" xlink:href="#cB"/><use transform="matrix(0.05,0,0,0.05,32,0)" xlink:href="#cB"/><use transform="matrix(0.05,0,0,0.05,42,0)" xlink:href="#bZ"/><use transform="matrix(0.05,0,0,0.05,45.95,0)" xlink:href="#ct"/><use transform="matrix(0.05,0,0,0.05,49.900000000000006,0)" xlink:href="#bY"/><use transform="matrix(0.05,0,0,0.05,59.900000000000006,0)" xlink:href="#bX"/></g><path fill="#333" d="M33 0v-248h34V0H33" id="dc"/><g id="W"><use transform="matrix(0.05,0,0,0.05,0,0)" xlink:href="#dc"/><use transform="matrix(0.05,0,0,0.05,5,0)" xlink:href="#cb"/><use transform="matrix(0.05,0,0,0.05,15,0)" xlink:href="#cj"/><use transform="matrix(0.05,0,0,0.05,24,0)" xlink:href="#bZ"/><use transform="matrix(0.05,0,0,0.05,27.950000000000003,0)" xlink:href="#ck"/><use transform="matrix(0.05,0,0,0.05,37.95,0)" xlink:href="#cn"/><use transform="matrix(0.05,0,0,0.05,47.95,0)" xlink:href="#bY"/><use transform="matrix(0.05,0,0,0.05,57.95,0)" xlink:href="#cn"/></g><g id="X"><use transform="matrix(0.05,0,0,0.05,0,0)" xlink:href="#cs"/><use transform="matrix(0.05,0,0,0.05,10,0)" xlink:href="#cb"/></g><g id="Y"><use transform="matrix(0.05,0,0,0.05,0,0)" xlink:href="#dc"/><use transform="matrix(0.05,0,0,0.05,5,0)" xlink:href="#cb"/><use transform="matrix(0.05,0,0,0.05,15,0)" xlink:href="#cj"/><use transform="matrix(0.05,0,0,0.05,24,0)" xlink:href="#bZ"/><use transform="matrix(0.05,0,0,0.05,27.950000000000003,0)" xlink:href="#ck"/><use transform="matrix(0.05,0,0,0.05,37.95,0)" xlink:href="#cn"/><use transform="matrix(0.05,0,0,0.05,47.95,0)" xlink:href="#bY"/><use transform="matrix(0.05,0,0,0.05,57.95,0)" xlink:href="#bX"/></g><path fill="#333" d="M240 0l2-218c-23 76-54 145-80 218h-23L58-218 59 0H30v-248h44l77 211c21-75 51-140 76-211h43V0h-30" id="dd"/><path fill="#333" d="M177-190C167-65 218 103 67 71c-23-6-38-20-44-43l32-5c15 47 100 32 89-28v-30C133-14 115 1 83 1 29 1 15-40 15-95c0-56 16-97 71-98 29-1 48 16 59 35 1-10 0-23 2-32h30zM94-22c36 0 50-32 50-73 0-42-14-75-50-75-39 0-46 34-46 75s6 73 46 73" id="de"/><g id="Z"><use transform="matrix(0.05,0,0,0.05,0,0)" xlink:href="#dd"/><use transform="matrix(0.05,0,0,0.05,14.950000000000001,0)" xlink:href="#cc"/><use transform="matrix(0.05,0,0,0.05,24.950000000000003,0)" xlink:href="#cB"/><use transform="matrix(0.05,0,0,0.05,34.95,0)" xlink:href="#cB"/><use transform="matrix(0.05,0,0,0.05,44.95,0)" xlink:href="#ct"/><use transform="matrix(0.05,0,0,0.05,48.900000000000006,0)" xlink:href="#cb"/><use transform="matrix(0.05,0,0,0.05,58.900000000000006,0)" xlink:href="#de"/></g><path fill="#333" d="M212-179c-10-28-35-45-73-45-59 0-87 40-87 99 0 60 29 101 89 101 43 0 62-24 78-52l27 14C228-24 195 4 139 4 59 4 22-46 18-125c-6-104 99-153 187-111 19 9 31 26 39 46" id="df"/><path fill="#333" d="M33-154v-36h34v36H33zM33 0v-36h34V0H33" id="dg"/><g id="aa"><use transform="matrix(0.05,0,0,0.05,0,0)" xlink:href="#df"/><use transform="matrix(0.05,0,0,0.05,12.950000000000001,0)" xlink:href="#cc"/><use transform="matrix(0.05,0,0,0.05,22.950000000000003,0)" xlink:href="#cm"/><use transform="matrix(0.05,0,0,0.05,28.900000000000002,0)" xlink:href="#cn"/><use transform="matrix(0.05,0,0,0.05,38.900000000000006,0)" xlink:href="#ct"/><use transform="matrix(0.05,0,0,0.05,42.85000000000001,0)" xlink:href="#cb"/><use transform="matrix(0.05,0,0,0.05,52.85,0)" xlink:href="#cc"/><use transform="matrix(0.05,0,0,0.05,62.85,0)" xlink:href="#bZ"/><use transform="matrix(0.05,0,0,0.05,66.80000000000001,0)" xlink:href="#ct"/><use transform="matrix(0.05,0,0,0.05,70.75000000000001,0)" xlink:href="#cl"/><use transform="matrix(0.05,0,0,0.05,75.75000000000001,0)" xlink:href="#ct"/><use transform="matrix(0.05,0,0,0.05,79.70000000000002,0)" xlink:href="#bY"/><use transform="matrix(0.05,0,0,0.05,89.70000000000002,0)" xlink:href="#bX"/><use transform="matrix(0.05,0,0,0.05,98.70000000000002,0)" xlink:href="#dg"/></g><path fill="#333" d="M205 0l-28-72H64L36 0H1l101-248h38L239 0h-34zm-38-99l-47-123c-12 45-31 82-46 123h93" id="dh"/><use transform="matrix(0.05,0,0,0.05,0,0)" xlink:href="#dh" id="ac"/><g id="ad"><use transform="matrix(0.05,0,0,0.05,0,0)" xlink:href="#bX"/><use transform="matrix(0.05,0,0,0.05,9,0)" xlink:href="#bY"/><use transform="matrix(0.05,0,0,0.05,19,0)" xlink:href="#bZ"/><use transform="matrix(0.05,0,0,0.05,22.95,0)" xlink:href="#bZ"/><use transform="matrix(0.05,0,0,0.05,26.899999999999995,0)" xlink:href="#bY"/><use transform="matrix(0.05,0,0,0.05,36.9,0)" xlink:href="#cm"/></g><g id="ae"><use transform="matrix(0.05,0,0,0.05,0,0)" xlink:href="#cS"/><use transform="matrix(0.05,0,0,0.05,10,0)" xlink:href="#cc"/><use transform="matrix(0.05,0,0,0.05,20,0)" xlink:href="#bX"/></g><g id="af"><use transform="matrix(0.05,0,0,0.05,0,0)" xlink:href="#cs"/><use transform="matrix(0.05,0,0,0.05,10,0)" xlink:href="#cb"/><use transform="matrix(0.05,0,0,0.05,20,0)" xlink:href="#bY"/></g><g id="ag"><use transform="matrix(0.05,0,0,0.05,0,0)" xlink:href="#cc"/><use transform="matrix(0.05,0,0,0.05,10,0)" xlink:href="#cb"/><use transform="matrix(0.05,0,0,0.05,20,0)" xlink:href="#cn"/></g><g id="ah"><use transform="matrix(0.05,0,0,0.05,0,0)" xlink:href="#cs"/><use transform="matrix(0.05,0,0,0.05,10,0)" xlink:href="#cb"/><use transform="matrix(0.05,0,0,0.05,20,0)" xlink:href="#bZ"/><use transform="matrix(0.05,0,0,0.05,23.95,0)" xlink:href="#cH"/></g><path fill="#333" d="M33 0v-38h34V0H33" id="di"/><g id="ai"><use transform="matrix(0.05,0,0,0.05,0,0)" xlink:href="#bX"/><use transform="matrix(0.05,0,0,0.05,9,0)" xlink:href="#cl"/><use transform="matrix(0.05,0,0,0.05,14,0)" xlink:href="#cs"/><use transform="matrix(0.05,0,0,0.05,24,0)" xlink:href="#cm"/><use transform="matrix(0.05,0,0,0.05,29.950000000000003,0)" xlink:href="#bY"/><use transform="matrix(0.05,0,0,0.05,39.95,0)" xlink:href="#da"/><use transform="matrix(0.05,0,0,0.05,44.95,0)" xlink:href="#cm"/><use transform="matrix(0.05,0,0,0.05,50.900000000000006,0)" xlink:href="#cs"/><use transform="matrix(0.05,0,0,0.05,60.900000000000006,0)" xlink:href="#cb"/><use transform="matrix(0.05,0,0,0.05,70.9,0)" xlink:href="#cl"/><use transform="matrix(0.05,0,0,0.05,75.9,0)" xlink:href="#di"/></g><use transform="matrix(0.05,0,0,0.05,0,0)" xlink:href="#dh" id="aj"/><g id="ak"><use transform="matrix(0.05,0,0,0.05,0,0)" xlink:href="#bX"/><use transform="matrix(0.05,0,0,0.05,9,0)" xlink:href="#cl"/><use transform="matrix(0.05,0,0,0.05,14,0)" xlink:href="#cs"/><use transform="matrix(0.05,0,0,0.05,24,0)" xlink:href="#cm"/><use transform="matrix(0.05,0,0,0.05,29.950000000000003,0)" xlink:href="#bY"/><use transform="matrix(0.05,0,0,0.05,39.95,0)" xlink:href="#da"/><use transform="matrix(0.05,0,0,0.05,44.95,0)" xlink:href="#cm"/><use transform="matrix(0.05,0,0,0.05,50.900000000000006,0)" xlink:href="#cs"/><use transform="matrix(0.05,0,0,0.05,60.900000000000006,0)" xlink:href="#cb"/><use transform="matrix(0.05,0,0,0.05,70.9,0)" xlink:href="#cl"/></g><g id="al"><use transform="matrix(0.05,0,0,0.05,0,0)" xlink:href="#cY"/><use transform="matrix(0.05,0,0,0.05,10,0)" xlink:href="#bY"/><use transform="matrix(0.05,0,0,0.05,20,0)" xlink:href="#bZ"/><use transform="matrix(0.05,0,0,0.05,23.95,0)" xlink:href="#cs"/><use transform="matrix(0.05,0,0,0.05,33.95,0)" xlink:href="#cb"/><use transform="matrix(0.05,0,0,0.05,43.95,0)" xlink:href="#de"/><use transform="matrix(0.05,0,0,0.05,53.95,0)" xlink:href="#bX"/></g><g id="am"><use transform="matrix(0.05,0,0,0.05,0,0)" xlink:href="#cl"/><use transform="matrix(0.05,0,0,0.05,5,0)" xlink:href="#cs"/></g><g id="an"><use transform="matrix(0.05,0,0,0.05,0,0)" xlink:href="#bX"/><use transform="matrix(0.05,0,0,0.05,9,0)" xlink:href="#bY"/><use transform="matrix(0.05,0,0,0.05,19,0)" xlink:href="#bZ"/><use transform="matrix(0.05,0,0,0.05,22.95,0)" xlink:href="#bZ"/><use transform="matrix(0.05,0,0,0.05,26.899999999999995,0)" xlink:href="#bY"/><use transform="matrix(0.05,0,0,0.05,36.9,0)" xlink:href="#cm"/><use transform="matrix(0.05,0,0,0.05,41.85,0)" xlink:href="#di"/></g><path fill="#333" d="M27 0v-27h64v-190l-56 39v-29l58-41h29v221h61V0H27" id="dj"/><g id="ap"><use transform="matrix(0.05,0,0,0.05,0,0)" xlink:href="#dj"/><use transform="matrix(0.05,0,0,0.05,10,0)" xlink:href="#dg"/><use transform="matrix(0.05,0,0,0.05,15,0)" xlink:href="#dj"/></g><g id="aq"><use transform="matrix(0.05,0,0,0.05,0,0)" xlink:href="#cd"/><use transform="matrix(0.05,0,0,0.05,14.950000000000001,0)" xlink:href="#cc"/><use transform="matrix(0.05,0,0,0.05,24.950000000000003,0)" xlink:href="#cH"/></g><g id="ar"><use transform="matrix(0.05,0,0,0.05,0,0)" xlink:href="#bX"/><use transform="matrix(0.05,0,0,0.05,9,0)" xlink:href="#ck"/><use transform="matrix(0.05,0,0,0.05,19,0)" xlink:href="#cB"/><use transform="matrix(0.05,0,0,0.05,29,0)" xlink:href="#cB"/><use transform="matrix(0.05,0,0,0.05,39,0)" xlink:href="#bZ"/><use transform="matrix(0.05,0,0,0.05,42.95,0)" xlink:href="#cH"/></g><path fill="#333" d="M68-38c1 34 0 65-14 84H32c9-13 17-26 17-46H33v-38h35" id="dk"/><g id="as"><use transform="matrix(0.05,0,0,0.05,0,0)" xlink:href="#cb"/><use transform="matrix(0.05,0,0,0.05,10,0)" xlink:href="#cs"/><use transform="matrix(0.05,0,0,0.05,20,0)" xlink:href="#cb"/><use transform="matrix(0.05,0,0,0.05,30,0)" xlink:href="#bY"/><use transform="matrix(0.05,0,0,0.05,40,0)" xlink:href="#dk"/></g><g id="at"><use transform="matrix(0.05,0,0,0.05,0,0)" xlink:href="#cs"/><use transform="matrix(0.05,0,0,0.05,10,0)" xlink:href="#cb"/><use transform="matrix(0.05,0,0,0.05,20,0)" xlink:href="#bY"/><use transform="matrix(0.05,0,0,0.05,30,0)" xlink:href="#dk"/></g><g id="au"><use transform="matrix(0.05,0,0,0.05,0,0)" xlink:href="#cs"/><use transform="matrix(0.05,0,0,0.05,10,0)" xlink:href="#cm"/></g><g id="av"><use transform="matrix(0.05,0,0,0.05,0,0)" xlink:href="#cd"/><use transform="matrix(0.05,0,0,0.05,14.950000000000001,0)" xlink:href="#cc"/><use transform="matrix(0.05,0,0,0.05,24.950000000000003,0)" xlink:href="#cb"/><use transform="matrix(0.05,0,0,0.05,34.95,0)" xlink:href="#cH"/></g><g id="aw"><use transform="matrix(0.05,0,0,0.05,0,0)" xlink:href="#ct"/><use transform="matrix(0.05,0,0,0.05,3.95,0)" xlink:href="#cl"/><use transform="matrix(0.05,0,0,0.05,8.95,0)" xlink:href="#bY"/><use transform="matrix(0.05,0,0,0.05,18.95,0)" xlink:href="#cd"/><use transform="matrix(0.05,0,0,0.05,33.9,0)" xlink:href="#bX"/><use transform="matrix(0.05,0,0,0.05,42.9,0)" xlink:href="#di"/></g><g id="ax"><use transform="matrix(0.05,0,0,0.05,0,0)" xlink:href="#dh"/><use transform="matrix(0.05,0,0,0.05,12,0)" xlink:href="#cb"/></g><g id="ay"><use transform="matrix(0.05,0,0,0.05,0,0)" xlink:href="#ct"/><use transform="matrix(0.05,0,0,0.05,3.95,0)" xlink:href="#cl"/><use transform="matrix(0.05,0,0,0.05,8.95,0)" xlink:href="#bY"/><use transform="matrix(0.05,0,0,0.05,18.95,0)" xlink:href="#cd"/></g><g id="az"><use transform="matrix(0.05,0,0,0.05,0,0)" xlink:href="#cd"/><use transform="matrix(0.05,0,0,0.05,14.950000000000001,0)" xlink:href="#ck"/><use transform="matrix(0.05,0,0,0.05,24.950000000000003,0)" xlink:href="#bX"/><use transform="matrix(0.05,0,0,0.05,33.95,0)" xlink:href="#cl"/></g><g id="aA"><use transform="matrix(0.05,0,0,0.05,0,0)" xlink:href="#cY"/><use transform="matrix(0.05,0,0,0.05,10,0)" xlink:href="#bY"/></g><g id="aB"><use transform="matrix(0.05,0,0,0.05,0,0)" xlink:href="#bX"/><use transform="matrix(0.05,0,0,0.05,9,0)" xlink:href="#ck"/><use transform="matrix(0.05,0,0,0.05,19,0)" xlink:href="#cB"/><use transform="matrix(0.05,0,0,0.05,29,0)" xlink:href="#cB"/><use transform="matrix(0.05,0,0,0.05,39,0)" xlink:href="#bZ"/><use transform="matrix(0.05,0,0,0.05,42.95,0)" xlink:href="#ct"/><use transform="matrix(0.05,0,0,0.05,46.900000000000006,0)" xlink:href="#bY"/><use transform="matrix(0.05,0,0,0.05,56.900000000000006,0)" xlink:href="#cn"/></g><g id="aC"><use transform="matrix(0.05,0,0,0.05,0,0)" xlink:href="#cY"/><use transform="matrix(0.05,0,0,0.05,10,0)" xlink:href="#cH"/></g><g id="aD"><use transform="matrix(0.05,0,0,0.05,0,0)" xlink:href="#bX"/><use transform="matrix(0.05,0,0,0.05,9,0)" xlink:href="#cl"/><use transform="matrix(0.05,0,0,0.05,14,0)" xlink:href="#cs"/><use transform="matrix(0.05,0,0,0.05,24,0)" xlink:href="#cm"/><use transform="matrix(0.05,0,0,0.05,29.950000000000003,0)" xlink:href="#bY"/><use transform="matrix(0.05,0,0,0.05,39.95,0)" xlink:href="#da"/><use transform="matrix(0.05,0,0,0.05,44.95,0)" xlink:href="#cm"/><use transform="matrix(0.05,0,0,0.05,50.900000000000006,0)" xlink:href="#cs"/><use transform="matrix(0.05,0,0,0.05,60.900000000000006,0)" xlink:href="#cb"/><use transform="matrix(0.05,0,0,0.05,70.9,0)" xlink:href="#cl"/><use transform="matrix(0.05,0,0,0.05,75.9,0)" xlink:href="#di"/></g><g id="aE"><use transform="matrix(0.05,0,0,0.05,0,0)" xlink:href="#dj"/><use transform="matrix(0.05,0,0,0.05,10,0)" xlink:href="#dg"/><use transform="matrix(0.05,0,0,0.05,15,0)" xlink:href="#dd"/></g><g id="aF"><use transform="matrix(0.05,0,0,0.05,0,0)" xlink:href="#dh"/><use transform="matrix(0.05,0,0,0.05,12,0)" xlink:href="#cb"/></g><g id="aG"><use transform="matrix(0.05,0,0,0.05,0,0)" xlink:href="#ct"/><use transform="matrix(0.05,0,0,0.05,3.95,0)" xlink:href="#cb"/><use transform="matrix(0.05,0,0,0.05,13.949999999999998,0)" xlink:href="#cj"/><use transform="matrix(0.05,0,0,0.05,22.95,0)" xlink:href="#bZ"/><use transform="matrix(0.05,0,0,0.05,26.899999999999995,0)" xlink:href="#ck"/><use transform="matrix(0.05,0,0,0.05,36.9,0)" xlink:href="#cn"/><use transform="matrix(0.05,0,0,0.05,46.9,0)" xlink:href="#bY"/><use transform="matrix(0.05,0,0,0.05,56.900000000000006,0)" xlink:href="#cn"/></g><g id="aH"><use transform="matrix(0.05,0,0,0.05,0,0)" xlink:href="#cs"/><use transform="matrix(0.05,0,0,0.05,10,0)" xlink:href="#cb"/></g><path fill="#333" d="M87 75C49 33 22-17 22-94c0-76 28-126 65-167h31c-38 41-64 92-64 168S80 34 118 75H87" id="dl"/><path fill="#333" d="M33-261c38 41 65 92 65 168S71 34 33 75H2C39 34 66-17 66-93S39-220 2-261h31" id="dm"/><g id="aI"><use transform="matrix(0.05,0,0,0.05,0,0)" xlink:href="#cs"/><use transform="matrix(0.05,0,0,0.05,10,0)" xlink:href="#cm"/><use transform="matrix(0.05,0,0,0.05,15.949999999999998,0)" xlink:href="#cn"/><use transform="matrix(0.05,0,0,0.05,25.950000000000003,0)" xlink:href="#bY"/><use transform="matrix(0.05,0,0,0.05,35.95,0)" xlink:href="#cm"/><use transform="matrix(0.05,0,0,0.05,41.900000000000006,0)" xlink:href="#dl"/><use transform="matrix(0.05,0,0,0.05,47.85000000000001,0)" xlink:href="#bX"/><use transform="matrix(0.05,0,0,0.05,56.85,0)" xlink:href="#dm"/><use transform="matrix(0.05,0,0,0.05,62.80000000000001,0)" xlink:href="#di"/></g><g id="aJ"><use transform="matrix(0.05,0,0,0.05,0,0)" xlink:href="#cs"/><use transform="matrix(0.05,0,0,0.05,10,0)" xlink:href="#cm"/><use transform="matrix(0.05,0,0,0.05,15.949999999999998,0)" xlink:href="#cn"/><use transform="matrix(0.05,0,0,0.05,25.950000000000003,0)" xlink:href="#bY"/><use transform="matrix(0.05,0,0,0.05,35.95,0)" xlink:href="#cm"/></g><g id="aK"><use transform="matrix(0.05,0,0,0.05,0,0)" xlink:href="#ct"/><use transform="matrix(0.05,0,0,0.05,3.95,0)" xlink:href="#cb"/><use transform="matrix(0.05,0,0,0.05,13.949999999999998,0)" xlink:href="#cj"/><use transform="matrix(0.05,0,0,0.05,22.95,0)" xlink:href="#bZ"/><use transform="matrix(0.05,0,0,0.05,26.899999999999995,0)" xlink:href="#ck"/><use transform="matrix(0.05,0,0,0.05,36.9,0)" xlink:href="#cn"/><use transform="matrix(0.05,0,0,0.05,46.9,0)" xlink:href="#bY"/></g><g id="aL"><use transform="matrix(0.05,0,0,0.05,0,0)" xlink:href="#ct"/><use transform="matrix(0.05,0,0,0.05,3.95,0)" xlink:href="#cl"/><use transform="matrix(0.05,0,0,0.05,8.95,0)" xlink:href="#bY"/><use transform="matrix(0.05,0,0,0.05,18.95,0)" xlink:href="#cd"/><use transform="matrix(0.05,0,0,0.05,33.9,0)" xlink:href="#bX"/><use transform="matrix(0.05,0,0,0.05,42.9,0)" xlink:href="#di"/></g><g id="aM"><use transform="matrix(0.05,0,0,0.05,0,0)" xlink:href="#bX"/><use transform="matrix(0.05,0,0,0.05,9,0)" xlink:href="#bY"/><use transform="matrix(0.05,0,0,0.05,19,0)" xlink:href="#bZ"/><use transform="matrix(0.05,0,0,0.05,22.95,0)" xlink:href="#bZ"/></g><g id="aN"><use transform="matrix(0.05,0,0,0.05,0,0)" xlink:href="#cj"/><use transform="matrix(0.05,0,0,0.05,9,0)" xlink:href="#ck"/><use transform="matrix(0.05,0,0,0.05,19,0)" xlink:href="#bX"/><use transform="matrix(0.05,0,0,0.05,28,0)" xlink:href="#cl"/><use transform="matrix(0.05,0,0,0.05,33,0)" xlink:href="#cs"/><use transform="matrix(0.05,0,0,0.05,43,0)" xlink:href="#cd"/><use transform="matrix(0.05,0,0,0.05,57.95,0)" xlink:href="#bY"/><use transform="matrix(0.05,0,0,0.05,67.95,0)" xlink:href="#cm"/><use transform="matrix(0.05,0,0,0.05,73.9,0)" xlink:href="#bX"/><use transform="matrix(0.05,0,0,0.05,82.9,0)" xlink:href="#di"/></g><g id="aO"><use transform="matrix(0.05,0,0,0.05,0,0)" xlink:href="#cj"/><use transform="matrix(0.05,0,0,0.05,9,0)" xlink:href="#ck"/><use transform="matrix(0.05,0,0,0.05,19,0)" xlink:href="#bX"/><use transform="matrix(0.05,0,0,0.05,28,0)" xlink:href="#cl"/><use transform="matrix(0.05,0,0,0.05,33,0)" xlink:href="#cs"/><use transform="matrix(0.05,0,0,0.05,43,0)" xlink:href="#cd"/><use transform="matrix(0.05,0,0,0.05,57.95,0)" xlink:href="#bY"/><use transform="matrix(0.05,0,0,0.05,67.95,0)" xlink:href="#cm"/></g><g id="aP"><use transform="matrix(0.05,0,0,0.05,0,0)" xlink:href="#cY"/><use transform="matrix(0.05,0,0,0.05,10,0)" xlink:href="#ck"/><use transform="matrix(0.05,0,0,0.05,20,0)" xlink:href="#cH"/></g><g id="aQ"><use transform="matrix(0.05,0,0,0.05,0,0)" xlink:href="#da"/><use transform="matrix(0.05,0,0,0.05,5,0)" xlink:href="#cm"/><use transform="matrix(0.05,0,0,0.05,10.95,0)" xlink:href="#cs"/><use transform="matrix(0.05,0,0,0.05,20.95,0)" xlink:href="#cd"/></g><g id="aR"><use transform="matrix(0.05,0,0,0.05,0,0)" xlink:href="#bX"/><use transform="matrix(0.05,0,0,0.05,9,0)" xlink:href="#bY"/><use transform="matrix(0.05,0,0,0.05,19,0)" xlink:href="#bZ"/><use transform="matrix(0.05,0,0,0.05,22.95,0)" xlink:href="#bZ"/><use transform="matrix(0.05,0,0,0.05,26.899999999999995,0)" xlink:href="#bY"/><use transform="matrix(0.05,0,0,0.05,36.9,0)" xlink:href="#cm"/><use transform="matrix(0.05,0,0,0.05,42.85,0)" xlink:href="#bX"/><use transform="matrix(0.05,0,0,0.05,51.85,0)" xlink:href="#di"/></g><path fill="#333" d="M190 0L58-211 59 0H30v-248h39L202-35l-2-213h31V0h-41" id="dn"/><g id="aS"><use transform="matrix(0.05,0,0,0.05,0,0)" xlink:href="#dn"/><use transform="matrix(0.05,0,0,0.05,12.950000000000001,0)" xlink:href="#dg"/><use transform="matrix(0.05,0,0,0.05,17.950000000000003,0)" xlink:href="#dd"/></g><g id="aT"><use transform="matrix(0.05,0,0,0.05,0,0)" xlink:href="#cB"/><use transform="matrix(0.05,0,0,0.05,10,0)" xlink:href="#bZ"/><use transform="matrix(0.05,0,0,0.05,13.949999999999998,0)" xlink:href="#cc"/><use transform="matrix(0.05,0,0,0.05,23.95,0)" xlink:href="#cj"/><use transform="matrix(0.05,0,0,0.05,32.95,0)" xlink:href="#bY"/></g><g id="aU"><use transform="matrix(0.05,0,0,0.05,0,0)" xlink:href="#cs"/><use transform="matrix(0.05,0,0,0.05,10,0)" xlink:href="#cm"/><use transform="matrix(0.05,0,0,0.05,15.949999999999998,0)" xlink:href="#cn"/><use transform="matrix(0.05,0,0,0.05,25.950000000000003,0)" xlink:href="#bY"/><use transform="matrix(0.05,0,0,0.05,35.95,0)" xlink:href="#cm"/><use transform="matrix(0.05,0,0,0.05,40.900000000000006,0)" xlink:href="#dk"/></g><g id="aV"><use transform="matrix(0.05,0,0,0.05,0,0)" xlink:href="#ct"/><use transform="matrix(0.05,0,0,0.05,3.95,0)" xlink:href="#da"/></g><g id="aW"><use transform="matrix(0.05,0,0,0.05,0,0)" xlink:href="#ct"/><use transform="matrix(0.05,0,0,0.05,3.95,0)" xlink:href="#cl"/></g><path fill="#333" d="M141 0L90-78 38 0H4l68-98-65-92h35l48 74 47-74h35l-64 92 68 98h-35" id="do"/><g id="aX"><use transform="matrix(0.05,0,0,0.05,0,0)" xlink:href="#bY"/><use transform="matrix(0.05,0,0,0.05,10,0)" xlink:href="#do"/><use transform="matrix(0.05,0,0,0.05,19,0)" xlink:href="#ct"/><use transform="matrix(0.05,0,0,0.05,22.95,0)" xlink:href="#bX"/><use transform="matrix(0.05,0,0,0.05,31.950000000000003,0)" xlink:href="#cl"/><use transform="matrix(0.05,0,0,0.05,36.95,0)" xlink:href="#bX"/><use transform="matrix(0.05,0,0,0.05,45.95,0)" xlink:href="#dk"/></g><g id="aY"><use transform="matrix(0.05,0,0,0.05,0,0)" xlink:href="#cY"/><use transform="matrix(0.05,0,0,0.05,10,0)" xlink:href="#bY"/><use transform="matrix(0.05,0,0,0.05,20,0)" xlink:href="#bZ"/><use transform="matrix(0.05,0,0,0.05,23.95,0)" xlink:href="#cs"/><use transform="matrix(0.05,0,0,0.05,33.95,0)" xlink:href="#cb"/><use transform="matrix(0.05,0,0,0.05,43.95,0)" xlink:href="#de"/></g><g id="aZ"><use transform="matrix(0.05,0,0,0.05,0,0)" xlink:href="#cj"/><use transform="matrix(0.05,0,0,0.05,9,0)" xlink:href="#ck"/><use transform="matrix(0.05,0,0,0.05,19,0)" xlink:href="#bX"/><use transform="matrix(0.05,0,0,0.05,28,0)" xlink:href="#cl"/><use transform="matrix(0.05,0,0,0.05,33,0)" xlink:href="#cs"/><use transform="matrix(0.05,0,0,0.05,43,0)" xlink:href="#cd"/><use transform="matrix(0.05,0,0,0.05,57.95,0)" xlink:href="#bY"/><use transform="matrix(0.05,0,0,0.05,67.95,0)" xlink:href="#cm"/><use transform="matrix(0.05,0,0,0.05,72.9,0)" xlink:href="#di"/></g><g id="ba"><use transform="matrix(0.05,0,0,0.05,0,0)" xlink:href="#cb"/><use transform="matrix(0.05,0,0,0.05,10,0)" xlink:href="#cs"/><use transform="matrix(0.05,0,0,0.05,20,0)" xlink:href="#cb"/><use transform="matrix(0.05,0,0,0.05,30,0)" xlink:href="#bY"/></g><g id="bb"><use transform="matrix(0.05,0,0,0.05,0,0)" xlink:href="#cj"/><use transform="matrix(0.05,0,0,0.05,9,0)" xlink:href="#ck"/><use transform="matrix(0.05,0,0,0.05,19,0)" xlink:href="#bX"/><use transform="matrix(0.05,0,0,0.05,28,0)" xlink:href="#cl"/><use transform="matrix(0.05,0,0,0.05,33,0)" xlink:href="#cs"/><use transform="matrix(0.05,0,0,0.05,43,0)" xlink:href="#cd"/><use transform="matrix(0.05,0,0,0.05,57.95,0)" xlink:href="#bY"/><use transform="matrix(0.05,0,0,0.05,67.95,0)" xlink:href="#cm"/><use transform="matrix(0.05,0,0,0.05,73.9,0)" xlink:href="#ca"/><use transform="matrix(0.05,0,0,0.05,83.9,0)" xlink:href="#cB"/><use transform="matrix(0.05,0,0,0.05,93.9,0)" xlink:href="#cc"/><use transform="matrix(0.05,0,0,0.05,103.9,0)" xlink:href="#cH"/><use transform="matrix(0.05,0,0,0.05,112.9,0)" xlink:href="#cd"/><use transform="matrix(0.05,0,0,0.05,127.85000000000001,0)" xlink:href="#bY"/><use transform="matrix(0.05,0,0,0.05,137.85000000000002,0)" xlink:href="#cb"/><use transform="matrix(0.05,0,0,0.05,147.85000000000002,0)" xlink:href="#cl"/></g><g id="bc"><use transform="matrix(0.05,0,0,0.05,0,0)" xlink:href="#ct"/><use transform="matrix(0.05,0,0,0.05,3.95,0)" xlink:href="#cb"/><use transform="matrix(0.05,0,0,0.05,13.949999999999998,0)" xlink:href="#da"/><use transform="matrix(0.05,0,0,0.05,18.95,0)" xlink:href="#cs"/><use transform="matrix(0.05,0,0,0.05,28.950000000000003,0)" xlink:href="#di"/></g><g id="bd"><use transform="matrix(0.05,0,0,0.05,0,0)" xlink:href="#ct"/><use transform="matrix(0.05,0,0,0.05,3.95,0)" xlink:href="#cb"/><use transform="matrix(0.05,0,0,0.05,13.949999999999998,0)" xlink:href="#da"/><use transform="matrix(0.05,0,0,0.05,18.95,0)" xlink:href="#cs"/></g><g id="be"><use transform="matrix(0.05,0,0,0.05,0,0)" xlink:href="#dj"/><use transform="matrix(0.05,0,0,0.05,10,0)" xlink:href="#dg"/><use transform="matrix(0.05,0,0,0.05,15,0)" xlink:href="#dj"/></g><g id="bf"><use transform="matrix(0.05,0,0,0.05,0,0)" xlink:href="#ck"/><use transform="matrix(0.05,0,0,0.05,10,0)" xlink:href="#bX"/><use transform="matrix(0.05,0,0,0.05,19,0)" xlink:href="#bY"/><use transform="matrix(0.05,0,0,0.05,29,0)" xlink:href="#bX"/></g><g id="bg"><use transform="matrix(0.05,0,0,0.05,0,0)" xlink:href="#cj"/><use transform="matrix(0.05,0,0,0.05,9,0)" xlink:href="#ck"/><use transform="matrix(0.05,0,0,0.05,19,0)" xlink:href="#bX"/><use transform="matrix(0.05,0,0,0.05,28,0)" xlink:href="#cl"/><use transform="matrix(0.05,0,0,0.05,33,0)" xlink:href="#cs"/><use transform="matrix(0.05,0,0,0.05,43,0)" xlink:href="#cd"/><use transform="matrix(0.05,0,0,0.05,57.95,0)" xlink:href="#bY"/><use transform="matrix(0.05,0,0,0.05,67.95,0)" xlink:href="#cm"/><use transform="matrix(0.05,0,0,0.05,73.9,0)" xlink:href="#ca"/><use transform="matrix(0.05,0,0,0.05,83.9,0)" xlink:href="#cB"/><use transform="matrix(0.05,0,0,0.05,93.9,0)" xlink:href="#cc"/><use transform="matrix(0.05,0,0,0.05,103.9,0)" xlink:href="#cH"/><use transform="matrix(0.05,0,0,0.05,112.9,0)" xlink:href="#cd"/><use transform="matrix(0.05,0,0,0.05,127.85000000000001,0)" xlink:href="#bY"/><use transform="matrix(0.05,0,0,0.05,137.85000000000002,0)" xlink:href="#cb"/><use transform="matrix(0.05,0,0,0.05,147.85000000000002,0)" xlink:href="#cl"/><use transform="matrix(0.05,0,0,0.05,152.85000000000002,0)" xlink:href="#di"/></g><g id="bh"><use transform="matrix(0.05,0,0,0.05,0,0)" xlink:href="#cj"/><use transform="matrix(0.05,0,0,0.05,9,0)" xlink:href="#cc"/><use transform="matrix(0.05,0,0,0.05,19,0)" xlink:href="#cb"/></g><g id="bi"><use transform="matrix(0.05,0,0,0.05,0,0)" xlink:href="#ck"/><use transform="matrix(0.05,0,0,0.05,10,0)" xlink:href="#bX"/><use transform="matrix(0.05,0,0,0.05,19,0)" xlink:href="#bY"/><use transform="matrix(0.05,0,0,0.05,29,0)" xlink:href="#cn"/></g><g id="bj"><use transform="matrix(0.05,0,0,0.05,0,0)" xlink:href="#da"/><use transform="matrix(0.05,0,0,0.05,5,0)" xlink:href="#cs"/><use transform="matrix(0.05,0,0,0.05,15,0)" xlink:href="#cm"/></g><g id="bk"><use transform="matrix(0.05,0,0,0.05,0,0)" xlink:href="#cs"/><use transform="matrix(0.05,0,0,0.05,10,0)" xlink:href="#cm"/><use transform="matrix(0.05,0,0,0.05,15.949999999999998,0)" xlink:href="#cn"/><use transform="matrix(0.05,0,0,0.05,25.950000000000003,0)" xlink:href="#bY"/><use transform="matrix(0.05,0,0,0.05,35.95,0)" xlink:href="#cm"/><use transform="matrix(0.05,0,0,0.05,41.900000000000006,0)" xlink:href="#bX"/><use transform="matrix(0.05,0,0,0.05,50.900000000000006,0)" xlink:href="#di"/></g><g id="bl"><use transform="matrix(0.05,0,0,0.05,0,0)" xlink:href="#dj"/><use transform="matrix(0.05,0,0,0.05,10,0)" xlink:href="#dg"/><use transform="matrix(0.05,0,0,0.05,15,0)" xlink:href="#dd"/></g><path fill="#333" d="M121-226c-27-7-43 5-38 36h38v33H83V0H34v-157H6v-33h28c-9-59 32-81 87-68v32" id="dp"/><g id="bm"><use transform="matrix(0.05,0,0,0.05,0,0)" xlink:href="#bO"/><use transform="matrix(0.05,0,0,0.05,10,0)" xlink:href="#cg"/><use transform="matrix(0.05,0,0,0.05,15.949999999999998,0)" xlink:href="#ch"/><use transform="matrix(0.05,0,0,0.05,26.899999999999995,0)" xlink:href="#bR"/><use transform="matrix(0.05,0,0,0.05,33.9,0)" xlink:href="#bP"/><use transform="matrix(0.05,0,0,0.05,43.9,0)" xlink:href="#dp"/><use transform="matrix(0.05,0,0,0.05,49.85,0)" xlink:href="#bR"/><use transform="matrix(0.05,0,0,0.05,56.85,0)" xlink:href="#ch"/><use transform="matrix(0.05,0,0,0.05,67.8,0)" xlink:href="#cL"/><use transform="matrix(0.05,0,0,0.05,78.75,0)" xlink:href="#cg"/></g><g id="bn"><use transform="matrix(0.05,0,0,0.05,0,0)" xlink:href="#bO"/><use transform="matrix(0.05,0,0,0.05,10,0)" xlink:href="#cg"/><use transform="matrix(0.05,0,0,0.05,15.949999999999998,0)" xlink:href="#ch"/><use transform="matrix(0.05,0,0,0.05,26.899999999999995,0)" xlink:href="#bR"/><use transform="matrix(0.05,0,0,0.05,33.9,0)" xlink:href="#bP"/><use transform="matrix(0.05,0,0,0.05,43.9,0)" xlink:href="#bU"/><use transform="matrix(0.05,0,0,0.05,53.900000000000006,0)" xlink:href="#bV"/><use transform="matrix(0.05,0,0,0.05,58.900000000000006,0)" xlink:href="#bW"/><path fill="#333" d="M-.9.97h71.65v1.9H-.9z"/></g><g id="bo"><use transform="matrix(0.05,0,0,0.05,0,0)" xlink:href="#cq"/><use transform="matrix(0.05,0,0,0.05,10.950000000000001,0)" xlink:href="#cr"/></g><g id="bp"><use transform="matrix(0.05,0,0,0.05,0,0)" xlink:href="#bX"/><use transform="matrix(0.05,0,0,0.05,9,0)" xlink:href="#bY"/><use transform="matrix(0.05,0,0,0.05,19,0)" xlink:href="#bZ"/><use transform="matrix(0.05,0,0,0.05,22.95,0)" xlink:href="#bZ"/><use transform="matrix(0.05,0,0,0.05,26.899999999999995,0)" xlink:href="#ca"/><use transform="matrix(0.05,0,0,0.05,36.9,0)" xlink:href="#ct"/><use transform="matrix(0.05,0,0,0.05,40.85,0)" xlink:href="#cn"/></g><g id="bq"><use transform="matrix(0.04814827160493827,0,0,0.04814827160493827,0,0)" xlink:href="#cQ"/><use transform="matrix(0.04814827160493827,0,0,0.04814827160493827,8.666688888888888,0)" xlink:href="#cv"/><use transform="matrix(0.04814827160493827,0,0,0.04814827160493827,13.481516049382716,0)" xlink:href="#cW"/><use transform="matrix(0.04814827160493827,0,0,0.04814827160493827,23.11117037037037,0)" xlink:href="#cV"/><use transform="matrix(0.04814827160493827,0,0,0.04814827160493827,28.840814691358027,0)" xlink:href="#cw"/><use transform="matrix(0.04814827160493827,0,0,0.04814827160493827,38.47046901234568,0)" xlink:href="#cy"/><use transform="matrix(0.04814827160493827,0,0,0.04814827160493827,48.100123333333336,0)" xlink:href="#cz"/><use transform="matrix(0.04814827160493827,0,0,0.04814827160493827,57.72977765432099,0)" xlink:href="#cA"/><use transform="matrix(0.04814827160493827,0,0,0.04814827160493827,67.35943197530864,0)" xlink:href="#cx"/><use transform="matrix(0.04814827160493827,0,0,0.04814827160493827,81.75576518518518,0)" xlink:href="#cw"/></g><path fill="#333" d="M232-93c-1 65-40 97-104 97C67 4 28-28 28-90v-158h33c8 89-33 224 67 224 102 0 64-133 71-224h33v155" id="dq"/><g id="br"><use transform="matrix(0.05,0,0,0.05,0,0)" xlink:href="#dq"/><use transform="matrix(0.05,0,0,0.05,12.950000000000001,0)" xlink:href="#bX"/><use transform="matrix(0.05,0,0,0.05,21.950000000000003,0)" xlink:href="#bY"/><use transform="matrix(0.05,0,0,0.05,31.950000000000003,0)" xlink:href="#cn"/></g><g id="bs"><use transform="matrix(0.05,0,0,0.05,0,0)" xlink:href="#da"/><use transform="matrix(0.05,0,0,0.05,5,0)" xlink:href="#cs"/><use transform="matrix(0.05,0,0,0.05,15,0)" xlink:href="#cm"/></g><g id="bt"><use transform="matrix(0.05,0,0,0.05,0,0)" xlink:href="#dq"/><use transform="matrix(0.05,0,0,0.05,12.950000000000001,0)" xlink:href="#bX"/><use transform="matrix(0.05,0,0,0.05,21.950000000000003,0)" xlink:href="#bY"/><use transform="matrix(0.05,0,0,0.05,31.950000000000003,0)" xlink:href="#bX"/></g><g id="bu"><use transform="matrix(0.05,0,0,0.05,0,0)" xlink:href="#cZ"/><use transform="matrix(0.05,0,0,0.05,12,0)" xlink:href="#bY"/><use transform="matrix(0.05,0,0,0.05,22,0)" xlink:href="#bZ"/><use transform="matrix(0.05,0,0,0.05,25.950000000000003,0)" xlink:href="#cs"/><use transform="matrix(0.05,0,0,0.05,35.95,0)" xlink:href="#cb"/><use transform="matrix(0.05,0,0,0.05,45.95,0)" xlink:href="#de"/><use transform="matrix(0.05,0,0,0.05,55.95,0)" xlink:href="#bX"/></g><path fill="#333" d="M197 0v-115H63V0H30v-248h33v105h134v-105h34V0h-34" id="dr"/><g id="bv"><use transform="matrix(0.05,0,0,0.05,0,0)" xlink:href="#dr"/><use transform="matrix(0.05,0,0,0.05,12.950000000000001,0)" xlink:href="#cc"/><use transform="matrix(0.05,0,0,0.05,22.950000000000003,0)" xlink:href="#bX"/></g></defs></g></svg>